/* XPM */
static char * east_xpm[] = {
"64 64 285 2",
"  	c #434842",
". 	c #3F443E",
"+ 	c #444943",
"@ 	c #424741",
"# 	c #40453F",
"$ 	c #3D413B",
"% 	c #373936",
"& 	c #3E413C",
"* 	c #414641",
"= 	c #3E433D",
"- 	c #414640",
"; 	c #454A44",
"> 	c #484D47",
", 	c #3B403A",
"' 	c #3B3E39",
") 	c #3D423C",
"! 	c #40433E",
"~ 	c #3C413B",
"{ 	c #383C36",
"] 	c #3A3D38",
"^ 	c #3A3C37",
"/ 	c #3F413C",
"( 	c #444642",
"_ 	c #3C403A",
": 	c #40443E",
"< 	c #393B36",
"[ 	c #3C3E39",
"} 	c #393D38",
"| 	c #3B3E3A",
"1 	c #434841",
"2 	c #3E423D",
"3 	c #3D3F3A",
"4 	c #424540",
"5 	c #40423D",
"6 	c #454742",
"7 	c #454744",
"8 	c #474B45",
"9 	c #3A3E38",
"0 	c #3F433D",
"a 	c #3C3F3A",
"b 	c #393B37",
"c 	c #4E504B",
"d 	c #474C46",
"e 	c #494E48",
"f 	c #41443F",
"g 	c #363834",
"h 	c #41433E",
"i 	c #3A3F39",
"j 	c #4A4F49",
"k 	c #464B44",
"l 	c #3B3D38",
"m 	c #393B38",
"n 	c #3A3C3A",
"o 	c #3A3C39",
"p 	c #3E403B",
"q 	c #3B3F39",
"r 	c #363835",
"s 	c #3A3E39",
"t 	c #444942",
"u 	c #3F413E",
"v 	c #464843",
"w 	c #42443F",
"x 	c #454843",
"y 	c #464B45",
"z 	c #434741",
"A 	c #383A37",
"B 	c #3E403D",
"C 	c #3E423C",
"D 	c #454943",
"E 	c #434540",
"F 	c #3B3F3A",
"G 	c #3E403C",
"H 	c #40423F",
"I 	c #3F413D",
"J 	c #3D403B",
"K 	c #42453F",
"L 	c #383D38",
"M 	c #41453F",
"N 	c #393E38",
"O 	c #3C3F3B",
"P 	c #464844",
"Q 	c #474A45",
"R 	c #464A44",
"S 	c #3A3D37",
"T 	c #4B504A",
"U 	c #3A3C38",
"V 	c #484A45",
"W 	c #3F423D",
"X 	c #3C3E3A",
"Y 	c #3D3F3C",
"Z 	c #393D37",
"` 	c #3D403C",
" .	c #434642",
"..	c #3A3D39",
"+.	c #464A45",
"@.	c #40443F",
"#.	c #3C3E3B",
"$.	c #424441",
"%.	c #4B4E49",
"&.	c #454844",
"*.	c #3F423C",
"=.	c #424641",
"-.	c #383A36",
";.	c #3B3D39",
">.	c #3D413C",
",.	c #4E534D",
"'.	c #4C504B",
").	c #464944",
"!.	c #484A46",
"~.	c #494B46",
"{.	c #393C38",
"].	c #373935",
"^.	c #3B3D3A",
"/.	c #4D524C",
"(.	c #4B4D48",
"_.	c #50544E",
":.	c #4C514B",
"<.	c #414340",
"[.	c #444641",
"}.	c #424440",
"|.	c #383C38",
"1.	c #393C37",
"2.	c #41433F",
"3.	c #4A4C47",
"4.	c #363A34",
"5.	c #424640",
"6.	c #4A4C48",
"7.	c #474946",
"8.	c #4C4E49",
"9.	c #464845",
"0.	c #414440",
"a.	c #373B35",
"b.	c #343631",
"c.	c #373934",
"d.	c #3A3F3A",
"e.	c #363B35",
"f.	c #383B36",
"g.	c #383A35",
"h.	c #3C403B",
"i.	c #434542",
"j.	c #474944",
"k.	c #444643",
"l.	c #414541",
"m.	c #424541",
"n.	c #434641",
"o.	c #3F433E",
"p.	c #353833",
"q.	c #383D37",
"r.	c #363833",
"s.	c #30322F",
"t.	c #484C46",
"u.	c #444744",
"v.	c #373C36",
"w.	c #383C37",
"x.	c #353A34",
"y.	c #31332F",
"z.	c #353734",
"A.	c #373B36",
"B.	c #363934",
"C.	c #353732",
"D.	c #333531",
"E.	c #474C45",
"F.	c #494B48",
"G.	c #4A4D49",
"H.	c #4E524C",
"I.	c #3D3F3B",
"J.	c #323531",
"K.	c #323431",
"L.	c #333532",
"M.	c #363A35",
"N.	c #2E302D",
"O.	c #353934",
"P.	c #4C4F4A",
"Q.	c #3E413D",
"R.	c #4F514C",
"S.	c #434742",
"T.	c #323430",
"U.	c #4B4F49",
"V.	c #4A4D48",
"W.	c #3F443F",
"X.	c #444944",
"Y.	c #444742",
"Z.	c #383D39",
"`.	c #383B37",
" +	c #343833",
".+	c #484C47",
"++	c #50534E",
"@+	c #4D504B",
"#+	c #343934",
"$+	c #444743",
"%+	c #424542",
"&+	c #2F312E",
"*+	c #454842",
"=+	c #484B46",
"-+	c #51534E",
";+	c #515650",
">+	c #50524D",
",+	c #454641",
"'+	c #494D48",
")+	c #454945",
"!+	c #494C47",
"~+	c #484A47",
"{+	c #494B47",
"]+	c #4A4E48",
"^+	c #30322E",
"/+	c #40423E",
"(+	c #454743",
"_+	c #4D4F4C",
":+	c #454A43",
"<+	c #484D46",
"[+	c #353733",
"}+	c #484D48",
"|+	c #454944",
"1+	c #4C504A",
"2+	c #444843",
"3+	c #343733",
"4+	c #454A45",
"5+	c #4F544E",
"6+	c #535550",
"7+	c #51534F",
"8+	c #4A4C49",
"9+	c #4C4F49",
"0+	c #3D423D",
"a+	c #464A43",
"b+	c #3D403D",
"c+	c #545651",
"d+	c #4F524D",
"e+	c #4E514C",
"f+	c #494C49",
"g+	c #4D514B",
"h+	c #434541",
"i+	c #50554F",
"j+	c #525751",
"k+	c #535852",
"l+	c #52544F",
"m+	c #4F534D",
"n+	c #4D514D",
"o+	c #4B4D4A",
"p+	c #494C48",
"q+	c #414540",
"r+	c #51544F",
"s+	c #4B4E48",
"t+	c #4C4E4B",
"u+	c #4C4E4A",
"v+	c #474A46",
"w+	c #3E413B",
"x+	c #474A44",
"y+	c #494E47",
"z+	c #4E504D",
"A+	c #4A4D47",
"B+	c #4D4F4A",
"C+	c #494D47",
"D+	c #474945",
"E+	c #434844",
"F+	c #464B46",
"G+	c #424740",
"H+	c #40433F",
"I+	c #484B47",
"J+	c #444741",
"K+	c #444842",
"L+	c #434843",
"M+	c #434643",
"N+	c #414441",
"O+	c #3C3F39",
"P+	c #343633",
"Q+	c #4E504C",
"R+	c #434743",
"S+	c #3F423E",
"T+	c #4B4D49",
"U+	c #3B3E38",
"V+	c #51554F",
"W+	c #313330",
"X+	c #474B46",
"Y+	c #464945",
"Z+	c #3C403C",
"`+	c #393D3A",
" @	c #404440",
".@	c #444845",
"+@	c #40453E",
"@@	c #393C39",
"#@	c #424742",
"$@	c #3A3B38",
"%@	c #4A4D4A",
"&@	c #404540",
"*@	c #3B403B",
"  . .   + @ # . $ % #   & * = - # @ # . ; ; > - , ' ) . # . ! ' ~ , { ] ^ / ( _ = = - @ @ +   : : # @ @ - ~ < [ ~ . # , ~ - .   ",
"- = # - # @ @ # ) } | 1 2 . . = = # @ ~ _ # @ = 3 4 - ) ~ ] [ / ) 5 6 7 8 @ = 5 # @ @ # -   @ - 9 , ) . # 0 a ~ = @ ) = . = - # ",
"= - @ @ - @ @ 1 # = b - 2 _ @ ) # @ . . - # =   ; ; = @ , 6 c - - + d e . )   ; + @ f ! _ # . _ g # # . . ) . @ = , ) ) . - - # ",
"@ @ - - @ - - . = # . ) _ ] @ ~ ) @ + - . 0 h - i . , = # - d > j k + $ l _ [ ' ' ^ m n o [ p . & ) . . ; p ~ q r ' s ~ . . @ . ",
"= = - @ - # # - # = # a 9 '   ) ~ ) t k > ; ; + ~ , 5 # . # - - # p 3 u 5 6 v u w x ; y z = 3 = -       ; . < A   B l ' = _ @ = ",
"3 l q C # - . ) ) # # $ q $   = ) ) . # ) ) ) ) ~ ) = # . = = = # ; 5 $ , $ ' ] =   * = , ) - ) ~ ~ ~ @ t ~ : C # D # # q 0 @ . ",
"- = ~ p [ [ [ ~ , # - ) } - ~ , ) # @ . ^ [ . / E F = ) ~ d ; . q o m m o G H I # ) 2 , ) . J ~ , , = . - . K _ ) . ) @ F ] - - ",
"  - ) , , ~ . # . . & L M = , N l . @ # ^ D > : = , i ~ = @ = = O P Q Q R - -   - @ e ) . C ~ q = / # = _ = _ - # . q . $ S _ @ ",
"& 2 - # 3 _ # . . = = # @ = ~ _ ^ ~ . ~ E 0 i ) d T T j y # @ = ; e l 3 , ~ . - - ) )   ; 3 $ i = = $ _ - - ~ . . = ' a . l 3 ' ",
"U a # . ) . = ) # . . # . a $ @ ! / - + ^ w V = W $ $ J 5 ) ) p -   M B ] X Y A } ' l ) C . = l Z # # # ! 3 ` q # - I F +  .J C ",
"q m ..} m l q _ _ ) 3 ' [ [ m A m =   @ & d ) @ w +.= y ; @.3 l #.H $.E Q %.%.&.u b & 3 3   ) l p p _ 3 l ) @ *.) . =.9 ) * 4 ) ",
"9 ~ ' Z l N [ ^ -.% ;.^ 5 @ @ 4 >.p # ) l - ,.j y . / 5 p a H 6 '.T e y : _ p - ).!.` 3 y . ~ 3 [ y ~.) ~ . @ y # $ a m [ )   5 ",
"F m 9 ' {.].b b ^.3 0 ) ) , ) ) ) = # . / @ - . = ; /.j ~.(._.:.  : 5 p $.<.[.- [.: (.}.# . M / _ - +   - # - - j . B |.^.3 = - ",
"= $ $ = q ^ o . . ) ].b ^ p - . # + > e # # e d - . - + > # # & 5 w v 0 p p - # y # - [.-.@.@ ).. = t = ) = ) = ) = W G ;.^ [ = ",
"= ) C _ l [ J . ) 1.g 2.6 @ . . # . # # . 3   y e 3.@ h   3 p 5 0 & #.#.Y / 5 @ @ # >.U b 3 . M ) ) = ) , l m {.~ ) ) | % < ^ ^ ",
"#.. p -.A & >.- Z < i ~ 4., ~ ~ ~ ) ) ) ) p / 5.5.- - / & u B <.6.$.7.8.9.G O X ^.3 & 0.u ;.) >.' [ 0 4 . 5 0 - C [ ^ [ ~ / q ^ ",
"q p o h J   1.a.b.c.d.e.3 - ~ ~ i f.a.g.. . h.Y i.d + ! 5.u j.V h [.6 u }.k.7 l.m.y 8 n.o.A 3 C [ 3 - - = - 4 / ^.q . # @ = . . ",
"- + # - ~ N < p.l 5.) i N q.< r.b.s.m 3 / ) @ / (.,.  h 3.9.6 5 k.h u H B X w t.u.&   E z I M 2 3 #.= . {.} A . w @ + - - = ~ . ",
"@ - - # , ) ) , # N , ) v.e.f.3 ^ / . = & < $ - ) /.- v j.E B B B 9.7.}.Y B $.X 4 8.z j.@.z W a [ [ q [ ;.m 9 - # k t h ) # = . ",
"- +   0 w.Z l q.x.y.z.A.% g.B.c.' g.C.l [ g.D.s C E.4 5 w B F.6.G.H.c n.k.I Q v X C I.u B . C : 6 / / 3 C . # . @ @ . / ) # - @ ",
"' - . ].m c.r.# J.K.H r.% l - - . . ) & [ ;.L.U # + ; u <.$.).9.e }.u $.( X e j.=.#.H n.i.@ ; 5.2.o >.: - # @ )   = 5 = = 3 q F ",
"J e = q & z.a M.N.I r.< @.+ @   + + ; ; - p -.O.M + d m.k.( P.c E #.Q.B B @.e R.d I.h E i.5 ! p / W # . = # ! |.~ ) ` - p 3 [ $ ",
"S.@ . ' g #.T.m A./ , + v y e + - @   + y + w.}.b ; d ; U.i.V.6 I 9.7.9.W.d > > z V y d y x y @ # ; # @ t X.Y.2 @ E G = = . . + ",
"[ [ # Z.`. +} A.# 3 [.- ; d @ > ; T y ; ; - _ F o : R ).7.( d 7.8 .+++@+3.n.v ).<.: h   h + j./ @ ; @ - # # ! | @ <.q . # # @ - ",
"= y : #+' T.} 0 # = - j   @ ; > d y y d ; @ + ].B Q 8./.P.@+c :.%.R ).$+%+D y  .i.$.Y.2 @ y t.h @ @ @ @ @ #   ].= + ) ) . - 5.= ",
"- 5.q &+m L.} @ - ) y d + @ + y ; y d :.> y W g.B *+=+D R c -+;+>+8.7.7 P V j.u &.y ,+z > e ;     + @     +   I.p # - d . @     ",
"3 U 0 r T.^.a.  y # '+; ; ; ;   + + T :.; @ w.Y n.T e n.)+~.%.!+7.~+~+~+{+9.}.).T ).[.z > ]+y y ; ; + +   @ + @.o     + . ; + w ",
"w d - U ^+s w.@ +.; ; + - - @ + ; y /.e e j A.#.k.~./+$.<./+2.<.k.(+=+_+P 7 j.:.j 8.7 ; > d y y d n.. = = # + :+G <+> -   ; @ C ",
"; M ' < [+r < ! y + - }+- + d y d ,.j :.> # U u '+:.j > j c :./.e |+(+i.k.~+~.~.d 1+3.d e ; w   2+p / $ # - @ > U <+j - # @ - = ",
"3 ' $ & z.3+r r 4+  + d ;   + ; d 5+e j + Z w >.,./.3.V c 6+7+P.8+F..+|+~.j.7 8 j 9+D j v + + &.H D B #.#.0+= @ h.a+> - - ) b+i ",
") y ; = , p ^ q - +   @ - @ ; d e j >   = w H ; e 8.!+U.,.c+d+c+-+,.e+8+f+8+7.T T g+; > + f 5 <.H 6 <.^.w 3 p # v : @ - y . ! = ",
"j.@ @ ) y 9 y ) # . . # # - - - T ; @ d Z 9.h+/.,.5+,.i+j+k+l+c 3.c m+P.n+o+p+T :.c d (.Q [.V H <.h x w E E M + V q+@ +   @ - D ",
"/ ) = ] 6 . ; - . + @ @ - - # +   ; e y `.n.> k+T 4 Q 6+l+R.r+s+t+u+,.j+>+t.V.q+T ,.:.%.V.v+i.w+5 h t.+ x+<.q # $+=.y+@ @ @ - Q ",
"@ @ ) . @ E +.@ + - ;       + ; y +   :.; > d 8 7 7.o+R.z+R.8.}.$.A+!+5+l+t+!.$+Y.j B+C+8.D+f v # @ 8 + H  .^.+ / q++ = ) ~ ~ = ",
"=   @ + @   y . C ) e -   +     - ; e ; y E j.7 F.~+~.8.R.%._+t./+m.+.E+]+c V j e Q j F+(.[.[.j.- ; ]+R H @.G++ M /+H+) . # - # ",
". - - + @ p +.+ ) - e + # . # @ U I+v /.  V > d > T T T >+R.t+S.2+B @.J+]+8.(.6.j.8 ; d (.6 h 4 5.6 K+|+u X k z S.H m.  y . . . ",
". Z Q e . ~ > + - - T   # . h L+B ).j.3.V T j T :.,./.:.V.B+R.~.X.Y <.7 e !+C+9.i.k.}.6 j.[.[.i.B ! |+M+@.#.- ! I w+q J y . # # ",
"- W H y .     . d = @ - y @ @ K+/+i.9.[.8 T > j U./.:.5+j j.B+R.S.i.H H j.T d 8 j.v $+N+2.<.h f W - k.M > # . O F %+#.m @   @ - ",
"@ # [ U.0 / *.  + . = h y ; w m.b ( $+T e n.R 4 R /.8.v 7.8+8.(.)+h+u u S.; i+R.u+k.=.k.5.f h w n.H p @ y @ ; O | 2 ^ O+# - - x ",
" .:+d.Q.h @ . j # @ ) 3 E D u ;.P+B Y.j 6 S.K+V e V 9.9.> 3.F.U.Q u 2.Y }.Y.!+Q+9.H i.M q+@.H H ` 5.f ) h ) y o ]./+>.X @ @ ) ! ",
"A X [+Y D   . + _ @.0 3 3 4 b P+A }.; [.N+u R+> Q d + ~.s+B+y t.V.u Y $.H ( 9.7 $.h+I /+! @ 6 5 #   @ - # # @ U ].;.I.f - f ~ & ",
"% b U o Q # ' 5 U ! - / + M J z.z.>.@ K+Y H j.> (.8 7.8+y > y ~.7.H B }.#.H H w + Y.> +   ; [.B & 4 8.h ) = :+..% o A S+= 5 l p ",
"[ m -.-.q++ , ) = ` u 5 e 5 5 g A @.v u w B 6 i.F.<.<.i.d e d j.7 2.0 I.^.Y I ; U.x h + y B+# f , _ 0 [ 0 @ E.[ r L.].;.= <.U h.",
"~ a [ o h - ) - + } 5 w - p E A A 6 v B h I.9.5 w : B $.; > y Q 7 y =+h+B H h.j &.<.= @ ; 4 - + 0 ) @ W @   + ;.U L.o m A #.' . ",
"G+= q v.M # ~ L f w.0 . ) ) r ^.m - M B - h.u v j.E 6 =+j.d ~.k.2.V ; M Y ( & C+T+u - t.+ w . # - @ . + h - @ W U L.} r % r A - ",
"z & ].A I M C ] # U+@ 5 @ - ..[.2 ; Q.u y - u [.! [.4 k.> e y > ).; T y Q.;.| z 0 4 =+i.5 - + ; @ y   $ @ # - 0 s ].1.% < 1.% s ",
"/+~ Z ^ C + ) a F >.) [ & # + M #.n.;.u ; f 5 / w [.  f j.e+8.!+> V+c+K+w u o.'.; %.9.3 5 @ j - # - @ / W k - # A 9 r ^.o h.m L.",
"% $.~ l [ 3 3 a i ; p ) [ h j O p # ^.5 y ; . 5 k.v 3.,.e e T :.B+3.Y.d E #   d }+7.C # 0 : @ d x ) # @ # = - # U+a ;.A J F ;.W+",
"z.b ~ [ . # ) l . # = q [ 3 j.Q.! 3 o & k ; - # . 0 5   ; y ; X+; y j d + @ K+Q k.5 . # * ; =+E = -       # , . G+[ q z.J [ F D.",
"s [+= = # - 9 < ) ~ @ ] a ..}.;.f 0 / h y ; y . h+@ -   ; d X+ .B+3.K+> 6   p h C f + z Y+E 5 C C & _ O+a & - = $ 2 , ].U _ ..z.",
"M g = ~ ~ . , ~ , p   W 3 w.[ 3 @ @ +     - d     - - + d V.I.G h # f @ +.n.}.9./   !.i.! - 4 . K 3 _ 3 3 = J a C l N } ].l 3 [+",
"2 C # # # . J m Z [ M q+Z+].F = ) 3 - @   ; + y y e y Y.|+i.C - - -   e B Y ;.3 & f Y _ @   - 5.- ) [ l 3 q ) .   - < 9 { a _ c.",
"= 1   = ) - = , a 3 Z Z >.} o 4 M - <+d d d - ; -  .u G & = v - + [.7.k.0 # _ 5 = #.b ~ . = / ) @ @ = ~ ! U ^ 3 : w J q ~ [ & _ ",
". . . ) ) = & [ [ 3 - `+| : ].0 F # - - @ w #   K+J 5   M E # ]+B+@ # . E h $ - M 3 [ - - @ @     - # J & ^ ^ l A < ' ~ ~ ' ^ ) ",
") ~ ) . # # -   f _ ; J ].D a [  @; @ @ @ = # # ~ & # #.3 . n.[.. ; f   C .@J - f l , = ~ - +   - - - # = q 3 ' % r , & W = ) ) ",
"~ ) . = ~ #   @ ; @ . = z.Y n.3 ' - @   @ - # # = = ) W   + -     - _ M f ' = [.- ;._ o.. ) @ -   k >   = _ . q m ^ 3 U , . @.# ",
". = J ] [ - +@. =   = = Z W $ 3 ' h !+y +       @ . ) # d e j d ~.'./+X <.J - . Y >.s . @ ~ - @ + + - @ : & . @@m A a m q ) _ . ",
"~ [ p q @ p ~ ) = ) = = ~ # @ # . # . . # +   ) - * - + 2+E 5.v 2.& & ^ b ^.# + >.[ ~ = = . . @ +     t $ ) . % ] ~ ! s ] , [ = ",
"l 9 q - - = ) l = ) ~ a # =   @ t t @ @ # ) = =   O ) - t . 3 , ) + y i = # . p M / [ p . . @ + + :+; Q W = ) [ f 3 I.q o m ~ = ",
". ) J - @ - ~ ) = . 3 F - 9 #@@ - @ @ @ -   = - - _   ; (.n.5 : - y y $@f [.! _ 3 - p J - # - t ; y ; 5.# @ ) 3 o p { _ 9 q . 3 ",
"  . 3 C = . . * ~ )   0 3 a 1 - @ -   M M + 1 - = ~ @ # = - x ).%@~+w ] 9 ~ @ = J B h = -   ! # . n.Y.# + :+) _ &   & 5 3 ~ / = ",
"  = J q & . = >._ = ~ l ~ +@@ @     - 3 # W   . = = # D n.H u I.O C = ~ N # t.= / ~ ~ = . . = C & W # . 4 f o.A J - ) ~ ) ! p - ",
"5 @ ~ ~ ~ , ) . ~ [ : 3 - C @   ; @ . #   J # = - $ = 2 5 C . @   V w . p w w+5.p = ) ) ) 5 ) = = . = / a [ {.{.Z &@. & q 3 - f ",
"# -   1 @ - ! ' *@0 ) = 0 Z - + + @     ; # . - @ _ . ; * - @ - # 3 & ~ ~ ^ l u ~ ) . . # = ~ $ _ ~ ~ . - . ) , ~ = = ^ ] ) - . "};
