/* XPM */
static char * floor_xpm[] = {
"64 64 208 2",
"  	c #222222",
". 	c #282525",
"+ 	c #302A2A",
"@ 	c #383030",
"# 	c #3F3534",
"$ 	c #423736",
"% 	c #3C3433",
"& 	c #312C2B",
"* 	c #272525",
"= 	c #232222",
"- 	c #252424",
"; 	c #2E2929",
"> 	c #393131",
", 	c #413635",
"' 	c #453938",
") 	c #483B3A",
"! 	c #3B3231",
"~ 	c #322C2C",
"{ 	c #282626",
"] 	c #393130",
"^ 	c #403635",
"/ 	c #2B2727",
"( 	c #262424",
"_ 	c #2F2A2A",
": 	c #3C3332",
"< 	c #2E2A2A",
"[ 	c #37302F",
"} 	c #453A39",
"| 	c #332D2C",
"1 	c #2A2727",
"2 	c #2D2828",
"3 	c #372F2F",
"4 	c #403534",
"5 	c #312C2C",
"6 	c #292626",
"7 	c #232323",
"8 	c #242323",
"9 	c #262525",
"0 	c #312B2B",
"a 	c #423837",
"b 	c #3D3433",
"c 	c #342D2D",
"d 	c #262425",
"e 	c #3A3231",
"f 	c #413736",
"g 	c #463A39",
"h 	c #433837",
"i 	c #352E2E",
"j 	c #2C2828",
"k 	c #2B2827",
"l 	c #342E2E",
"m 	c #2C2829",
"n 	c #282625",
"o 	c #2E2A29",
"p 	c #302B2B",
"q 	c #3E3434",
"r 	c #403535",
"s 	c #393030",
"t 	c #373030",
"u 	c #3E3433",
"v 	c #443837",
"w 	c #473A39",
"x 	c #322D2C",
"y 	c #362F2F",
"z 	c #332D2D",
"A 	c #2D2928",
"B 	c #342E2D",
"C 	c #362F2E",
"D 	c #3B3331",
"E 	c #3D3333",
"F 	c #2F2A29",
"G 	c #352E2D",
"H 	c #38302F",
"I 	c #3B3232",
"J 	c #383130",
"K 	c #3C3333",
"L 	c #3E3534",
"M 	c #3C3232",
"N 	c #493C3A",
"O 	c #50403E",
"P 	c #554341",
"Q 	c #2D2929",
"R 	c #433736",
"S 	c #443737",
"T 	c #463938",
"U 	c #433737",
"V 	c #473B3A",
"W 	c #453A38",
"X 	c #534340",
"Y 	c #5A4744",
"Z 	c #654F4A",
"` 	c #6C544F",
" .	c #483A39",
"..	c #4B3D3B",
"+.	c #584643",
"@.	c #624D49",
"#.	c #6E5650",
"$.	c #765B54",
"%.	c #755B54",
"&.	c #493B3A",
"*.	c #493C3B",
"=.	c #4C3E3C",
"-.	c #594744",
";.	c #644F4A",
">.	c #705751",
",.	c #775C55",
"'.	c #423636",
").	c #483A3A",
"!.	c #4C3D3C",
"~.	c #5C4945",
"{.	c #654F4B",
"].	c #715751",
"^.	c #564542",
"/.	c #644E4A",
"(.	c #4B3D3C",
"_.	c #574542",
":.	c #443938",
"<.	c #584744",
"[.	c #4D3E3D",
"}.	c #5C4845",
"|.	c #463939",
"1.	c #4D3E3C",
"2.	c #5A4844",
"3.	c #322B2B",
"4.	c #292727",
"5.	c #3A3131",
"6.	c #574643",
"7.	c #765B55",
"8.	c #453837",
"9.	c #4A3C3B",
"0.	c #6D554F",
"a.	c #735852",
"b.	c #554441",
"c.	c #5A4845",
"d.	c #68514C",
"e.	c #69524D",
"f.	c #50413F",
"g.	c #544340",
"h.	c #584743",
"i.	c #5C4A46",
"j.	c #4E3F3D",
"k.	c #4F403E",
"l.	c #4A3C3A",
"m.	c #2F2B2A",
"n.	c #544341",
"o.	c #5B4844",
"p.	c #604C48",
"q.	c #634E4A",
"r.	c #5F4B47",
"s.	c #6A534E",
"t.	c #715851",
"u.	c #735952",
"v.	c #423737",
"w.	c #544441",
"x.	c #614C48",
"y.	c #67504B",
"z.	c #67504C",
"A.	c #4E3F3E",
"B.	c #5F4A46",
"C.	c #4F3F3E",
"D.	c #51413F",
"E.	c #292726",
"F.	c #4D3F3D",
"G.	c #4F3F3D",
"H.	c #4A3D3B",
"I.	c #524240",
"J.	c #5E4A46",
"K.	c #614D48",
"L.	c #634E49",
"M.	c #564442",
"N.	c #6B534E",
"O.	c #705651",
"P.	c #66504B",
"Q.	c #52423F",
"R.	c #594743",
"S.	c #6A534D",
"T.	c #6F5650",
"U.	c #765C55",
"V.	c #473A3A",
"W.	c #212222",
"X.	c #212121",
"Y.	c #2D2A29",
"Z.	c #3F3533",
"`.	c #483B39",
" +	c #5C4946",
".+	c #403634",
"++	c #534240",
"@+	c #52413F",
"#+	c #594643",
"$+	c #4B3C3B",
"%+	c #6B544E",
"&+	c #564541",
"*+	c #5B4845",
"=+	c #614D49",
"-+	c #664F4B",
";+	c #624D48",
">+	c #745A53",
",+	c #6C544E",
"'+	c #6E554F",
")+	c #68524D",
"!+	c #6D544F",
"~+	c #574543",
"{+	c #725852",
"]+	c #67514B",
"^+	c #634D49",
"/+	c #6E5550",
"(+	c #68524C",
"_+	c #5D4A46",
"                    . + @ # $ % & * =                       - ; > , ' ) ) ) ) ) ) ) $ ! ~ { * + ] ^ $ ! ~ / =                   ",
"                    ( _ @ # $ : ~ { =                       ( < [ ^ } ) ) ) ) ) ) ) $ ! | 1 * 2 3 4 $ ! 5 6     = 7 =           ",
"      7 8 - ( 9 9 9 6 0 ! , a b c / 9 * * 9 9 9 9 9 9 9 9 d 1 ~ e f g ) ) ) ) ) ) ) h b i j k _ [ 4 $ : l m - * * * * n n 1 j / ",
"    7 ( 6 j o < < < p 3 q h h r s 0 o _ _ < < < < < < < < < & t u v w ) ) ) ) ) ) ) ' ^ > ~ x y : , h q > z A _ _ < p B C D u E ",
"    8 6 F G [ H H @ e b , h h h r I @ H H H J H H H H J H H ] K 4 ' ) ) ) ) ) ) ) ) ' f L : M u $ ' ' , b ! @ H H [ e v N O P P ",
"    ( Q C q $ R R R S ' T T w w T U f $ $ $ v f $ $ $ v $ $ R v T V ) ) ) ) ) ) ) ) V T v v v v ' T T h U v v f $ $ W X Y Z ` ` ",
"* * 1 & e R w w w T w ) ) w ) ) ) w g w w w ) w w w w ) w w w w ) ) ) ) ) ) ) ) ) ) ) ) w w w w  .) w g w ) ) w w g ..+.@.#.$.%.",
"p p 5 y b v w ) ) w ) ) ) ) ) ) ) ) ) ) ) ) ) ) ) ) ) ) ) ) ) ) ) ) ) ) ) ) ) ) ) ) ) ) ) ) ) ) &.*.) ) ) ) ) ) ) ) =.-.;.>.,.,.",
"] ] e b ^ ' w ) ) ) ) ) ) ) ) ) ) ) ) ) ) ) ) ) ) ) ) ) ) ) ) ) ) ) ) ) ) ) ) ) ) ) ) ) ) ) ) ) ) ) ) ) ) ) ) ) ) ) =.-.;.>.,.,.",
"'.$ $ h ' w ) ) ) ) ) ) ) ) ) ) ) ) ) ) ) ) ) ) ) ) ) ) ) ) ) ) ) ) ) ) ) ) ) ) ) ) ) ) ) ) ) ) ) ) ) ) ) ) ) ) ) ) =.-.;.>.,.,.",
"' g w w w ) ) ) ) ) ) ) ) ) ) ) ) ) ) ) ) ) ) ) ) ) ) ) ) ) ) ) ) ) ) ) ) ) ) ) ) ) ) ) ) ) ) ) ) ) ) ) ) ) ) ) &.).!.~.{.].,.,.",
") ) ) ) ) ) ) ) ) ) ) ) ) ) ) ) ) ) ) ) ) ) ) ) ) ) ) ) ) ) ) ) ) ) ) ) ) ) ) ) ) ) ) ) ) ) ) ) ) ) ) ) ) ) ) ) &.) =.Y Z ].,.,.",
"*.&.) ) ) ) ) ) ) ) ) ) ) ) ) ) ) ) ) ) ) ) ) ) ) ) ) ) ) ) ) ) ) ) ) ) ) ) ) ) ) ) ) ) ) ) ) ) ) ) ) ) ) ) ) ) ) ) =.^./.].,.,.",
") ) V ) ) ) ) ) ) ) ) ) ) ) ) ) ) ) ) ) ) ) ) ) ) ) ) ) ) ) ) ) ) ) ) ) ) ) ) ) ) ) ) ) ) ) ) ) ) ) ) ) ) ) ) ) ) ) (._./.].,.,.",
"v v v :.T T w ) ) ) ) ) ) ) ) ) ) ) ) ) ) ) ) ) ) ) ) ) ) ) ) ) ) ) ) ) ) ) ) ) ) ) ) ) ) ) ) ) ) ) ) ) ) ) ) ) ) ) =.<.;.>.,.,.",
"M : : b $ w ) ) ) ) ) ) ) ) ) ) ) ) ) ) ) ) ) ) ) ) ) ) ) ) ) ) ) ) ) ) ) ) ) ) ) ) ) ) ) ) ) ) ) ) ) ) ) ) ) ) ) ) [.}.{.>.,.,.",
"p & ~ C u |.) ) ) ) ) ) ) ) ) ) ) ) ) ) ) ) ) ) ) ) ) ) ) ) ) ) ) ) ) ) ) ) ) ) ) ) ) ) ) ) ) ) ) ) ) ) ) ) ) ) ) ) 1.2.;.>.,.,.",
"* 6 j 3.I U w ) ) ) ) ) ) ) ) ) ) ) ) ) ) ) ) ) ) ) ) ) ) ) ) ) ) ) ) ) ) ) ) ) ) ) ) ) ) ) ) ) ) ) ) ) ) ) ) ) ) ) =.+.;.>.,.,.",
". 4.j ~ I $ g ) ) ) ) ) ) ) ) ) ) ) ) ) ) ) ) ) ) ) ) ) ) ) ) ) ) ) ) ) ) ) ) ) ) ) ) ) ) ) ) ) ) ) ) ) ) ) ) ) ) ) [.~.{.].,.,.",
"j ; & [ q ' ) ) ) ) ) ) ) ) ) ) ) ) ) ) ) ) ) ) ) ) ) ) ) ) ) ) ) ) ) ) ) ) ) ) ) ) ) ) ) ) ) ) ) ) ) ) ) ) ) ) ) ) =.+.;.>.,.,.",
"H @ 5.b f w ) ) ) ) ) ) ) ) ) ) ) ) ) ) ) ) ) ) ) ) ) ) ) ) ) ) ) ) ) ) ) ) ) ) ) ) ) ) ) ) ) ) ) ) ) ) ) ) ) ) ) ) =.6.;.>.,.,.",
"^ , , $ v w ) ) ) ) ) ) ) ) ) ) ) ) ) ) ) ) ) ) ) ) ) ) ) ) ) ) ) ) ) ) ) ) ) ) ) ) ) ) ) ) ) ) ) ) ) ) ) ) ) ) ) ) (.+.;.>.7.$.",
"$ h v 8.T V ) ) ) ) ) ) ) ) ) ) ) ) ) ) ) ) ) ) ) ) ) ) ) ) ) ) ) ) ) ) ) ) ) ) ) ) ) ) ) ) ) ) ) ) ) ) ) ) ) ) *.) 9.^.@.0.a.a.",
"K e : , v w ) ) ) ) ) ) ) ) ) ) ) ) ) ) ) ) ) ) ) ) ) ) ) ) ) ) ) ) ) ) ) ) ) ) ) ) ) ) ) ) ) ) ) ) ) ) ) ) ) ) *.*.=.b.c.@.d.e.",
"~ 5 | [ q ' ) ) ) ) ) ) ) ) ) ) ) ) ) ) ) ) ) ) ) ) ) ) ) ) ) ) ) ) ) ) ) ) ) ) ) ) ) ) ) ) ) ) ) ) ) ) ) ) ) )  .) (.f.g.h.~.i.",
"{ { k p ] $ w ) ) ) ) ) ) ) ) ) ) ) ) ) ) ) ) ) ) ) ) ) ) ) ) ) ) ) ) ) ) ) ) ) ) ) ) ) ) ) ) ) ) ) ) ) ) ) ) ) w ) 9.(.=.j.k.k.",
"    * _ y , g ) ) ) ) ) ) ) ) ) ) ) ) ) ) ) ) ) ) ) ) ) ) ) ) ) ) ) ) ) ) ) ) ) ) ) ) ) ) ) ) ) ) ) ) ) ) ) ) ) ) ) &...9.....l.",
"    * m.H R w ) ) ) ) ) ) ) ) ) ) ) ) ) ) ) ) ) ) ) ) ) ) ) ) ) ) ) ) ) ) ) ) ) ) ) ) ) ) ) ) ) ) ) ) ) ) ) ) ) ) ) 9.k.n.Y o.^.",
"    9 < H R w ) ) ) ) ) ) ) ) ) ) ) ) ) ) ) ) ) ) ) ) ) ) ) ) ) ) ) ) ) ) ) ) ) ) ) ) ) ) ) ) ) ) ) ) ) ) ) ) ) ) ) (.n.+.p.Z q.",
"    9 < H $ w ) ) ) ) ) ) ) ) ) ) ) ) ) ) ) ) ) ) ) ) ) ) ) ) ) ) ) ) ) ) ) ) ) ) ) ) ) ) ) ) ) ) ) ) ) ) ) ) ) ) ) (.^.r.s.t.t.",
"    9 < [ f w ) ) ) ) ) ) ) ) ) ) ) ) ) ) ) ) ) ) ) ) ) ) ) ) ) ) ) ) ) ) ) ) ) ) ) ) ) ) ) ) ) ) ) ) ) ) ) ) ) ) ) =.^.p.` u.u.",
"    * _ 3 v.V ) ) ) ) ) ) ) ) ) ) ) ) ) ) ) ) ) ) ) ) ) ) ) ) ) ) ) ) ) ) ) ) ) ) ) ) ) ) ) ) ) ) ) ) ) ) ) ) ) *.*.!.w.+.x.y.z.",
"    * m.[ f g ) ) ) ) ) ) ) ) ) ) ) ) ) ) ) ) ) ) ) ) ) ) ) ) ) ) ) ) ) ) ) ) ) ) ) ) ) ) ) ) ) ) ) ) ) ) ) ) ) ) w ) A.w.6.o.B.",
"    9 _ H $ w ) ) ) ) ) ) ) ) ) ) ) ) ) ) ) ) ) ) ) ) ) ) ) ) ) ) ) ) ) ) ) ) ) ) ) ) ) ) ) ) ) ) ) ) ) ) ) ) ) ) ) ) (.[.j.C.D.",
"9 9 E.p > h V ) ) ) ) ) ) ) ) ) ) ) ) ) ) ) ) ) ) ) ) ) ) ) ) ) ) ) ) ) ) ) ) ) ) ) ) ) ) ) ) ) ) ) ) ) ) ) ) ) ) ) ) 9.(.F.G.j.",
"< < p i K v  .) ) ) ) ) ) ) ) ) ) ) ) ) ) ) ) ) ) ) ) ) ) ) ) ) ) ) ) ) ) ) ) ) ) ) ) ) ) ) ) ) ) ) ) ) ) ) ) ) ) ) N =.f.b.+.+.",
"[ [ > K r g ) ) ) ) ) ) ) ) ) ) ) ) ) ) ) ) ) ) ) ) ) ) ) ) ) ) ) ) ) ) ) ) ) ) ) ) ) ) ) ) ) ) ) ) ) ) ) ) ) ) ) ) H.I.+.J.K.L.",
", , h ' h w ) ) ) ) ) ) ) ) ) ) ) ) ) ) ) ) ) ) ) ) ) ) ) ) ) ) ) ) ) ) ) ) ) ) ) ) ) ) ) ) ) ) ) ) ) ) ) ) ) ) ) ) (.M.K.N.O.>.",
"g g w ) g ) ) ) ) ) ) ) ) ) ) ) ) ) ) ) ) ) ) ) ) ) ) ) ) ) ) ) ) ) ) ) ) ) ) ) ) ) ) ) ) ) ) ) ) ) ) ) ) ) ) ) w w [.+.;.>.$.$.",
") ) ) ) ) ) ) ) ) ) ) ) ) ) ) ) ) ) ) ) ) ) ) ) ) ) ) ) ) ) ) ) ) ) ) ) ) ) ) ) ) ) ) ) ) ) ) ) ) ) ) ) ) ) ) )  .) j.-.;.>.,.,.",
") ) ) ) ) ) ) ) ) ) ) ) ) ) ) ) ) ) ) ) ) ) ) ) ) ) ) ) ) ) ) ) ) ) ) ) ) ) ) ) ) ) ) ) ) ) ) ) ) ) ) ) ) ) ) ) &.*.[.-.;.>.,.,.",
") w ) &.w ) ) ) ) ) ) ) ) ) ) ) ) ) ) ) ) ) ) ) ) ) ) ) ) ) ) ) ) ) ) ) ) ) ) ) ) ) ) ) ) ) ) ) ) ) ) ) ) ) ) ) ) ) =.-.Z >.,.,.",
"$ h ' ' T ) ) ) ) ) ) ) ) ) ) ) ) ) ) ) ) ) ) ) ) ) ) ) ) ) ) ) ) ) ) ) ) ) ) ) ) ) ) ) ) ) ) ) ) ) ) ) ) ) ) ) ) ) (.6.L.` >.>.",
"e : q ^ R w ) ) ) ) ) ) ) ) ) ) ) ) ) ) ) ) ) ) ) ) ) ) ) ) ) ) ) ) ) ) ) ) ) ) ) ) ) ) ) ) ) ) ) ) ) ) ) ) ) ) ) ) (.X ~.L.P.P.",
"~ ~ c > q T ) ) ) ) ) ) ) ) ) ) ) ) ) ) ) ) ) ) ) ) ) ) ) ) ) ) ) ) ) ) ) ) ) ) ) ) ) ) ) ) ) ) ) ) ) ) ) ) ) ) ) &...j.Q.+.o.o.",
"1 { 1 5 I v w ) ) ) ) ) ) ) ) ) ) ) ) ) ) ) ) ) ) ) ) ) ) ) ) ) ) ) ) ) ) ) ) ) ) ) ) ) ) ) ) ) ) ) ) ) ) ) ) ) ) &.9.9.9.C.I.Q.",
"8 7 * _ J f g ) ) ) ) ) ) ) ) ) ) ) ) ) ) ) ) ) ) ) ) ) ) ) ) ) ) ) ) ) ) ) ) ) ) ) ) ) ) ) ) ) ) ) ) ) ) ) ) ) ) ) ) ) ) *.9.9.",
"    9 < H h V ) ) ) ) ) ) ) ) ) ) ) ) ) ) ) ) ) ) ) ) ) ) ) ) ) ) ) ) ) ) ) ) ) ) ) ) ) ) ) ) ) ) ) ) ) ) ) ) ) ) ) ) ) ) ) ) ) ",
"    9 < @ h V ) ) ) ) ) ) ) ) ) ) ) ) ) ) ) ) ) ) ) ) ) ) ) ) ) ) ) ) ) ) ) ) ) ) ) ) ) ) ) ) ) ) ) ) ) ) ) ) ) ) ) ) ) ) V w ) ",
"    9 < H f g ) ) ) ) ) ) ) ) ) ) ) ) ) ) ) ) ) ) ) ) ) ) ) ) ) ) ) ) ) ) ) ) ) ) ) ) ) ) ) ) ) ) ) ) ) ) ) ) ) ) ) ) ) )  .) 9.",
"    9 < H R w ) ) ) ) ) ) ) ) ) ) ) ) ) ) ) ) ) ) ) ) ) ) ) ) ) ) ) ) ) ) ) ) ) ) ) ) ) ) ) ) ) ) ) ) ) ) ) ) ) ) &.9.9.9.!.C.D.",
"    9 < H f w ) ) ) ) ) ) ) ) ) ) ) ) ) ) ) ) ) ) ) ) ) ) ) ) ) ) ) ) ) ) ) ) ) ) ) ) ) ) ) ) ) ) ) ) ) ) ) ) ) ) ) 9.j.Q._.R.6.",
"    9 < H $ w ) ) ) ) ) ) ) ) ) ) ) ) ) ) ) ) ) ) ) ) ) ) ) ) ) ) ) ) ) ) ) ) ) ) ) ) ) ) ) ) ) ) ) ) ) ) ) ) ) ) ) H.I.-.K.Z x.",
"    9 < H R w ) ) ) ) ) ) ) ) ) ) ) ) ) ) ) ) ) ) ) ) ) ) ) ) ) ) ) ) ) ) ) ) ) ) ) ) ) ) ) ) ) ) ) ) ) ) ) ) ) ) ) !._.r.S.T.0.",
"    9 < H R w ) ) ) ) ) ) ) ) ) ) ) ) ) ) ) ) ) ) ) ) ) ) ) ) ) ) ) ) ) ) ) ) ) ) ) ) ) ) ) ) ) ) ) ) ) ) ) ) ) ) ) =.-.;.>.,.U.",
"    9 < [ f g ) ) ) ) ) ) ) ) ) ) ) ) ) ) ) ) ) ) ) ) ) ) ) ) ) ) ) ) ) ) ) ) ) ) ) ) ) ) ) ) ) ) ) ) ) ) ) ) ) ) ) =.-.;.>.,.,.",
"    9 < H $ w ) ) ) &.) V &.V V ) ) ) ) ) ) ) ) ) ) ) ) ) ) ) ) ) ) ) ) *.) ) ) ) ) ) ) ) ) ) ) ) ) ) ) ) ) &.w V.) =.-.;.>.,.,.",
"W.X.- Y.[ R w ) ) ) ) ) ) ) ) ) ) ) ) ) ) ) ) ) ) ) ) ) ) ) ) ) ) ) ) ) ) ) ) ) ) ) ) ) ) ) ) w w ) ) ) ) ) &. .V.V.=.-.;.>.,.,.",
"1 / _ C Z.`.!.=.=.!.(.(.9.w ) &.) ) ) 9.(.(.(...9.&.) *.9.=.1.=.[.1.=.!.!.=.=.(.=.[.=...9.&.) &.l.(.=.=.=.=.=.[.[.=.O  +P.t.,.,.",
".+$ ' ..Q.6.-.<.+.+.+.b.O ) w ) ) w &.O n.^.^.++C.(.*.[.@+#+o.+.~.2.+.-.~.+.^.6.-.~.+.g.k.$+9.j.X ^.-.-.-.-.-.-.-.<. +P.%+u.,.,.",
"&+b.6.*+r.q.;.;.;./.x.}.b.O 9.) w w 9.Q.2.x.@.Y n.[.9.D.Y =+Z ;.{.;.;.;.-+;./.q.;.Z ;+*+X [.$+D.2.x.;.;.;.;.Z ;.;.;.P.%+>.>+,.,.",
",+%+` '+#.>.>.>.>.>.N.L.Y ++(.) w ) [.b.r.)+!+q.+.j.(.^.x.%+>.>.>.>.>.>.].].].>.>.>.%+@.+.O H.g.x.S.>.].>.>.].>.>.>.t.u.>+$.,.,.",
",.,.,.,.,.,.,.,.,.,.>.y.~.++9.) ) 9.f.~+=+` {+e.~.C.=.-.;.>.,.,.,.,.,.,.,.,.,.,.,.,.>.]+~.D.1.M.L.T.$.,.,.,.,.,.,.,.,.,.,.,.,.,.",
",.,.,.,.,.,.,.,.,.,.>.P.~.++N w ) 9.I.6.^+/+{+e.J.D.=.-.;.>.,.,.,.,.,.,.,.,.,.,.,.,.>.(+_+k.D.^.=+T.$.,.,.,.,.,.,.,.,.,.,.,.,.,."};
