/* XPM */
static char * north_xpm[] = {
"64 64 393 2",
"  	c #352323",
". 	c #432E2E",
"+ 	c #3F2B2B",
"@ 	c #322121",
"# 	c #0F0808",
"$ 	c #452F2F",
"% 	c #3B2828",
"& 	c #3A2727",
"* 	c #362424",
"= 	c #312121",
"- 	c #2A1D1D",
"; 	c #150C0C",
"> 	c #442F2F",
", 	c #412C2C",
"' 	c #3C2929",
") 	c #392727",
"! 	c #2D1E1E",
"~ 	c #0E0707",
"{ 	c #493232",
"] 	c #372525",
"^ 	c #0E0808",
"/ 	c #483131",
"( 	c #422D2D",
"_ 	c #402B2B",
": 	c #302020",
"< 	c #160D0D",
"[ 	c #513737",
"} 	c #463030",
"| 	c #3E2A2A",
"1 	c #332222",
"2 	c #2A1B1B",
"3 	c #271A1A",
"4 	c #3B2727",
"5 	c #241818",
"6 	c #3D2A2A",
"7 	c #342323",
"8 	c #2C1D1D",
"9 	c #1F1414",
"0 	c #6C4A4A",
"a 	c #674848",
"b 	c #5D4141",
"c 	c #211515",
"d 	c #684949",
"e 	c #664747",
"f 	c #624444",
"g 	c #714F4F",
"h 	c #684848",
"i 	c #5E4141",
"j 	c #1E1313",
"k 	c #755252",
"l 	c #614444",
"m 	c #1E1414",
"n 	c #7E5858",
"o 	c #654747",
"p 	c #604343",
"q 	c #211616",
"r 	c #855C5C",
"s 	c #5A3F3F",
"t 	c #483232",
"u 	c #4A3333",
"v 	c #6C4B4B",
"w 	c #5F4141",
"x 	c #6A4A4A",
"y 	c #795454",
"z 	c #694949",
"A 	c #785454",
"B 	c #634545",
"C 	c #926666",
"D 	c #624545",
"E 	c #231717",
"F 	c #895F5F",
"G 	c #5F4242",
"H 	c #4B3333",
"I 	c #4B3434",
"J 	c #745050",
"K 	c #6B4A4A",
"L 	c #664848",
"M 	c #7B5555",
"N 	c #261919",
"O 	c #694A4A",
"P 	c #221616",
"Q 	c #855D5D",
"R 	c #644545",
"S 	c #946767",
"T 	c #936767",
"U 	c #614343",
"V 	c #573B3B",
"W 	c #835B5B",
"X 	c #4D3636",
"Y 	c #7A5555",
"Z 	c #755151",
"` 	c #271919",
" .	c #765252",
"..	c #916565",
"+.	c #8F6464",
"@.	c #936666",
"#.	c #A57373",
"$.	c #614242",
"%.	c #503737",
"&.	c #825A5A",
"*.	c #885E5E",
"=.	c #8B6060",
"-.	c #2A1C1C",
";.	c #9D6E6E",
">.	c #654646",
",.	c #996B6B",
"'.	c #AD7979",
").	c #C78B8B",
"!.	c #744F4F",
"~.	c #704E4E",
"{.	c #523939",
"].	c #996A6A",
"^.	c #543A3A",
"/.	c #5B3E3E",
"(.	c #7C5555",
"_.	c #734F4F",
":.	c #060303",
"<.	c #926464",
"[.	c #946666",
"}.	c #976969",
"|.	c #815959",
"1.	c #845B5B",
"2.	c #724E4E",
"3.	c #8F6363",
"4.	c #775252",
"5.	c #543939",
"6.	c #080505",
"7.	c #724F4F",
"8.	c #573C3C",
"9.	c #090606",
"0.	c #7B5454",
"a.	c #825959",
"b.	c #7A5454",
"c.	c #895E5E",
"d.	c #986969",
"e.	c #8A5F5F",
"f.	c #563A3A",
"g.	c #5D3F3F",
"h.	c #916464",
"i.	c #785353",
"j.	c #473030",
"k.	c #5F4040",
"l.	c #6D4B4B",
"m.	c #5E4040",
"n.	c #291B1B",
"o.	c #332121",
"p.	c #583D3D",
"q.	c #543B3B",
"r.	c #5A3E3E",
"s.	c #563C3C",
"t.	c #593E3E",
"u.	c #513838",
"v.	c #513939",
"w.	c #4E3636",
"x.	c #2F2020",
"y.	c #573D3D",
"z.	c #735050",
"A.	c #563B3B",
"B.	c #1F1515",
"C.	c #593D3D",
"D.	c #5B3F3F",
"E.	c #1D1313",
"F.	c #503838",
"G.	c #4F3737",
"H.	c #402D2D",
"I.	c #493333",
"J.	c #462F2F",
"K.	c #644646",
"L.	c #352424",
"M.	c #6E4C4C",
"N.	c #281B1B",
"O.	c #231818",
"P.	c #221717",
"Q.	c #755050",
"R.	c #4C3434",
"S.	c #714E4E",
"T.	c #533838",
"U.	c #966868",
"V.	c #241919",
"W.	c #6D4C4C",
"X.	c #5D4040",
"Y.	c #5B4040",
"Z.	c #6A4949",
"`.	c #473131",
" +	c #2B1D1D",
".+	c #9E6E6E",
"++	c #261A1A",
"@+	c #7E5757",
"#+	c #7F5959",
"$+	c #765151",
"%+	c #745151",
"&+	c #634343",
"*+	c #5E4242",
"=+	c #7F5858",
"-+	c #644444",
";+	c #9F6F6F",
">+	c #2D1F1F",
",+	c #906464",
"'+	c #865D5D",
")+	c #8A6060",
"!+	c #5F4343",
"~+	c #785252",
"{+	c #B78080",
"]+	c #A27171",
"^+	c #8E6363",
"/+	c #674747",
"(+	c #523838",
"_+	c #7C5757",
":+	c #BB8383",
"<+	c #966969",
"[+	c #956868",
"}+	c #8B6161",
"|+	c #875E5E",
"1+	c #CA8E8E",
"2+	c #AB7878",
"3+	c #A47272",
"4+	c #A77474",
"5+	c #8D6363",
"6+	c #B17B7B",
"7+	c #A97676",
"8+	c #926565",
"9+	c #845C5C",
"0+	c #6B4B4B",
"a+	c #4E3535",
"b+	c #C08686",
"c+	c #A17070",
"d+	c #9A6B6B",
"e+	c #8D6262",
"f+	c #624343",
"g+	c #A67474",
"h+	c #7C5656",
"i+	c #714D4D",
"j+	c #986A6A",
"k+	c #4F3636",
"l+	c #040202",
"m+	c #160E0E",
"n+	c #150D0D",
"o+	c #140C0C",
"p+	c #0F0909",
"q+	c #322222",
"r+	c #171010",
"s+	c #2C1E1E",
"t+	c #382626",
"u+	c #1A1212",
"v+	c #302121",
"w+	c #372626",
"x+	c #2E2020",
"y+	c #271B1B",
"z+	c #1C1313",
"A+	c #191010",
"B+	c #180F0F",
"C+	c #382525",
"D+	c #362525",
"E+	c #1B1111",
"F+	c #583C3C",
"G+	c #2F2121",
"H+	c #725050",
"I+	c #352525",
"J+	c #392828",
"K+	c #3E2B2B",
"L+	c #412D2D",
"M+	c #3A2828",
"N+	c #8C6262",
"O+	c #7D5656",
"P+	c #6F4D4D",
"Q+	c #4C3535",
"R+	c #AB7777",
"S+	c #A06F6F",
"T+	c #402C2C",
"U+	c #3C2A2A",
"V+	c #8C6161",
"W+	c #604141",
"X+	c #9B6B6B",
"Y+	c #9B6C6C",
"Z+	c #855B5B",
"`+	c #9C6D6D",
" @	c #8E6262",
".@	c #281C1C",
"+@	c #805959",
"@@	c #604242",
"#@	c #4D3535",
"$@	c #6E4B4B",
"%@	c #442D2D",
"&@	c #5C4040",
"*@	c #583E3E",
"=@	c #221818",
"-@	c #553B3B",
";@	c #533A3A",
">@	c #211717",
",@	c #251919",
"'@	c #463131",
")@	c #332323",
"!@	c #6B4949",
"~@	c #261B1B",
"{@	c #291D1D",
"]@	c #6E4D4D",
"^@	c #AD7878",
"/@	c #A77575",
"(@	c #B67F7F",
"_@	c #885F5F",
":@	c #896060",
"<@	c #775353",
"[@	c #AC7878",
"}@	c #865E5E",
"|@	c #815A5A",
"1@	c #201717",
"2@	c #342424",
"3@	c #956767",
"4@	c #704D4D",
"5@	c #0D0707",
"6@	c #181010",
"7@	c #1B1212",
"8@	c #120D0D",
"9@	c #120E0E",
"0@	c #332424",
"a@	c #2B1E1E",
"b@	c #241A1A",
"c@	c #0F0E0E",
"d@	c #231919",
"e@	c #422E2E",
"f@	c #3B2929",
"g@	c #382727",
"h@	c #392626",
"i@	c #1C1212",
"j@	c #362626",
"k@	c #211818",
"l@	c #634444",
"m@	c #654545",
"n@	c #3F2C2C",
"o@	c #906565",
"p@	c #251A1A",
"q@	c #221919",
"r@	c #7F5757",
"s@	c #976A6A",
"t@	c #9E6F6F",
"u@	c #9F6E6E",
"v@	c #BE8585",
"w@	c #B98282",
"x@	c #865C5C",
"y@	c #7D5757",
"z@	c #A67373",
"A@	c #B57E7E",
"B@	c #191414",
"C@	c #AA7676",
"D@	c #805858",
"E@	c #A87575",
"F@	c #493030",
"G@	c #382424",
"H@	c #1D1414",
"I@	c #231A1A",
"J@	c #302222",
"K@	c #694848",
"L@	c #2A1E1E",
"M@	c #553A3A",
"N@	c #291C1C",
"O@	c #7B5656",
"P@	c #5C3F3F",
"Q@	c #9D6D6D",
"R@	c #BF8585",
"S@	c #B47E7E",
"T@	c #A17171",
"U@	c #9A6C6C",
"V@	c #A57474",
"W@	c #271C1C",
"X@	c #D39494",
"Y@	c #A37171",
"Z@	c #AA7777",
"`@	c #A37272",
" #	c #2B1C1C",
".#	c #3A2929",
"+#	c #1C1414",
"@#	c #312323",
"##	c #3D2929",
"$#	c #201414",
"%#	c #322323",
"&#	c #8D6161",
"*#	c #442E2E",
"=#	c #453030",
"-#	c #A27070",
";#	c #2E1F1F",
">#	c #825B5B",
",#	c #AE7979",
"'#	c #A07070",
")#	c #684747",
"!#	c #3E2929",
"~#	c #533939",
"{#	c #875D5D",
"]#	c #946868",
"^#	c #9E6D6D",
"/#	c #493131",
"(#	c #B07B7B",
"_#	c #BA8282",
":#	c #B17C7C",
"  . + @ # $ . % & * = - ; $ > , ' % ) ! ~ { > + ' ] ^ / ( . _ ' : < [ } $ + + % | 1 2 } $ , | 3 4 , ( _ ' ) 5 1 , 6 | ' % 7 8 9 ",
"0 a a b c d a a a e e f c g e a e h e i j k e a e l m n e o a h p q r h a a o e h s ] a a a h t h h o e a a u v o a a a a a e % ",
"w d e p 3 x a e a a a f c y e h z a e p 9 A a a a B 9 C e z h e D E F a d o a e e G H e h e e I J e a d h e H K a a a e e e L + ",
"M a e B N O a a e e a a P n a e a a h l 9 Q a h d R 9 S a e e a d E T a a a a a e U V e a a e I W a a d a a X Y d a a a a a e > ",
"Z a a D `  .h a a a e a P ..d e e a a R j +.a L e a m @.h e e o o 3 #.L a a a h e f $.a h a a %.&.a a e e d %.*.d a a e a e e / ",
"=.a a o -.@.h e a a e e N ;.d e a a a >.9 ,.e d e o 9 '.a a a h a 3 ).z a d a a a >.!.~.d a a {.].d d a e a ^.S a e e a a a a } ",
"/.(._.0 :.<.[.}.r |.1.2.# |.3.4.(._.!.5.6.2.|.7.J 8.9.0.a.b.=.Z 2.9.c.}.S d.3.1.r 0 ^ e.Z Z J f.g.].h.*.Z i.j.k.].Z 7.Z l.m.H n.",
"o.p.q.r.s.t.{.u.v.w.x.| s y.{.q z.t.y.s.A.I B.C.D.t.t.p.p.s.t E.s.y.8.y.q.{.F.G.G.H.[ >.l f f G G s I.J.K.f l p s u p.K.o l p L.",
"M.e a a d d e e e e + C.a e e N.T h e o a >.O.v a e a e a e p P.>.a e a a e a e a t.Q.d d a a h d h p.V a a a a a s R.a a a d + ",
"S.d a h a d a e a e . T.a d a N.U.a o e a a V.4.a a e a e a B O.A a h e e h a a a b Z W.a d a h L a s X.a h a a a Y.Z.a e a L + ",
"M a a a h a h a d L `.Z.a h a  +.+e h e e e ++@+a a a a e h e P.#+h e a e a a h a p $+%+e a a e a a G &+a e a o e *+=+e L e a . ",
"r h e e a e a d L e I.-+a a L 1 ;+e a e a a >+,+a d a d e a e V.'+e a a a h O a a B $+)+a e h a a a i Q.h e e h a !+@+e a d a > ",
"~+{+]+..,+=.^+@+/+z.(+&.,.#+_+: :+}.<+[+}+|+_ 1+2+3+4+[+S 3.5+++6+7+8+S +.=.9+@+=+0+a+b+c+<+d+..e+*.&.f+g+'+S '+r h+i+j+3.&.=.k+",
"l+m+n+< o+< ; n+n+< p+n.7 = q+ +! N.P.r+L.7 s+s+++O.r+t+t+] ) ) ] s+u+v+w+L.= x+N.y+z+s+w+w+L.= =  +A+! ] ] ] : B+C+& D+1 = 3 E+",
"F+K.U p p U f G i D.L.R z a a e h a K.s+=.h a e a B G+B e L a a >.>.v+H+a L h e a B I+h d a e a o >.x+R a a d a = >.e d a e e ) ",
"U e a a a a a h d a J+i.a e a a a e a q+..a a o o a % e e a a a a h D+)+a e e d a e K+e a a a e e L v+W.a e a a w+M.a a a a a ' ",
"Q.a a a e e d o h h L+1.h a a a e a a t+^+e a a h a M+z a a a a a a w+N+a a a a a a K+v a a a h d h M+y a d a a % l.h e d e e + ",
"O+e O e h a a a a a > e+a a e e L e a 6 C h e a e e K+M.e a e a d e % @.e e h h e e L+P+a a h a L e ' 7.a e a a | e+h a z e a > ",
"U.O e a a a d a a e Q+R+d a a e a a e L+S+d a a e d T+~.d e a a a z U+}.e a d h a a `.W e e a a a e 6 V+e a d e . @.d a e a e $ ",
"W+3+X+Y+=.V+r _.S.2., Z+7+`+@. @n V+4.. e...r &.z.7.+ O+S.i w.> T+I..@+@F 9+1.h+P+b.{ l.'+M @+Z.A.@@N.Z.W f+#@H -.i+h+$@O+m.l.%@",
"p.b s I.D.p !+p *+&@&@*@- *.p l b Y.s.=@^.b t.Y.p.t.s.s.-@y.{.u.{.;@k+Q+>@f G *+*+A.,@t.U D.t `.f G i D.'@$ *+D.s D.p.p.y.^.w.q+",
"J a a s ~.a e h a e d d )@T L a a a e ,@p a a a a a a e a e d a d o a D O.x e e d h - >.h a -@z.a e a e s.!@a a e e a a a o a M+",
"g a e y. .e e e a a a d w+^+L e e e a V.>.a a d a a e L e e a e e o h e V.g a a a a >+p a a -@l.o e o L -@z a a a L h a a e a T+",
"e+a h t.=+a >.L e a o d % ].a e e e a ++@+e d e e a e a e e a a a a a a ~@n a a a a v+z.a a r.4.a a h a t.r h e e L a a a a e L+",
"V+d e Y.j+L e a O a L e . `+a e h a e {@)+a h a a e L a a d e e e a h a .@+.e h a e )@]@a h &@$+z a a a t.d.a e a a a h a a L { ",
",+7.h G ^@/@[+S ..r &.P+L+(@e+_@:@<@*.| [@;+].|+Q ^+}@|@&.9+e v K a i X.1@}.+@y  .o 2@].}+W 8.i.N+<@S.z.D.0.3+3@8+C e++@4@B B , ",
"5@N P.E O.P.P.q P.E 6@7@y+O.P.8@$ >+.@++=@O.9@q+0@.@a@~@~@b@=@c@b@.@b@~@d@d@=@b@O.O.} e@L+K++ f@M+g@x+h@> ' | M+L.s+8 $ . T+6 i@",
"8.d h a e K.>.L p !+j@$ L K.i O.Y e e a a &@=@C a a e e a o p.k@|@a a a a e K.f D X l@a a a a e e d u.J a a a a a -@u d a e a q+",
"m@a a a a a a a a e n@L+a a B V.o@a a a a B p@<+d o e L z e G q@@.e a a a h e a e t.Z.d a a e a e e s.~+d a L d e 8.( e a a e t+",
"r@a a a e e d o e e L+H a a h O.C h a a d o V.,.d e a z e e K.k@C a e a e a e e a D. .d e a e e z e p.=+L e a a a t.X.e e a h M+",
"'+a a a a d a a a a `./ a a a V.s@e e a a e - t@a L a a a a K.d@;.L a e e e a e a b @+ .a d e e h e D.1.a a e e h &@[ e e a a ' ",
"u@z.e h h a a a a e t >.a e a N.j+a e a a e x.v@a a h e a e B q@w@a a d d a a a a G @+].a e e a e a G 8+x a e h a b U a e a d . ",
"T.3+d.*.h.x@r i.b.D.] 0 )+W y@1 z@3.3.3.V+W O.A@#.@.,.^+^+@.|+B@S C@)+F )+9+r D@Z >.)@E@3+*.F r r @+P+& 3.r 1.9+Z @@F@F Q.f+g.G@",
"H &@t.I ! *+s y.-@-@%.t B.U Y.s p.t.y.`.H@p &@t.*@#@1@W.s D.*@y.w.I@U b &@D.&@y.t.t J@p s p.t.) K@&@&@t.8.s.D+u *+&@p.8.p.-@u. +",
"8.a a s f+d a e h a a G ++z a a a o h i V.z h a h b b@K d a e e l {@<@o a h e z a &@U+e a a d } 9+e a a a a } u.a a a d a a O D+",
"r.a a *+$@h d L a a e f y+0+a o a a >.*+=@z a a e *+p@y@a e a a >.L@n h a a d a a &@`.e z a a t _@a a a o a `.D.e e a a h e e ( ",
"M@a e U Z d a a h h L K.N@v a h a e a G V.O@a e a l p@_@a a e a B {@5+e h a d a a i K+a e a e Q+,+a e e a a X /+a a a a a e d 6 ",
"i.a a l Z z.e a e z a e N.n d o h e a K.5 }+e e h f p@s@a a a a a >+j+e a e a e d U P@a a h e w.Q@a a e L a Q+i.a e h a a h a e@",
"3.[+[+n X.R@S@2+]+`+U.S O.{+T@j+U@S [+~.1@(@`+[+j+Y 1@R@V@E@}.S [+W@X@(@E@[@`+[+[+V+w `+@.[+y@R Y@{+Z@`@3...e }.U@[+..^+)+O@~.( ",
" #) ] t+) * )@ +7@7 t+] L.- E.) w+) D+y+)@L+n@w+>@x..#J+D+>++#2@g@@#g@G+G+{@a@N@{@=@M+D+g@g@)@G+N@N.- y+3 y+.@y+,@P.7 T+##+ t+$#",
"@+e e h z a a a ) 7.a a a G [ a a L d y.$ e e h g@Z.a a d e %#A a a e a d e a a 8.t e e h a e e a a a a a d a e o #@{.a a e e M+",
"&.a a a a e a e M+~.a a h l R a L e e t.( a e a K+]@e e a a w+:@a h a a a e e o *+X.e e a h a a a e e a e a d d a -@{.a a e a % ",
"&#a d e d a z a + W a a e f K e e e e D.D.d a a ' ~.a a a e 6 S a a a a a d a a K.P+a e e d a a a a e a a e h h e s.7.h e a a , ",
"h.a a e a h d a *#=+e d e o =+x e a a l $.a a z L+l.a e a a U+C d a e e a e a a o @+a e e a a d h a e a e e a L a p.O@a a a a `.",
"(@a e e e e a a / @.a a o o =+O a a a f  .a a e > M e a e a L+'.x a d e a a a a a [+0+a d e d L e a a e e e a a a s.*.a e a e t ",
"Q.d.h.1.r O+r G ) !.$+;@A.@@`.,+~.p D.=#, F 1.@+> J  .y -@-@T+0 |.=+O+0 P+z.#@&@' *#,+-#F @+@+@+b.4@Z i.M z.Y K ( . M e+r |.z.##",
"_ B p l p G *+Y.D.s.;#l.a a a e a e l s+M.a e o e B a@O@h a a a a K.>+*+a h e a o p 2@]@h a a a a f s+Z a e h >. +=.d a a a L v+",
"a+e e d a d a e e e x+|@e a a a e d a a@n e a a e e )@_+h L a a a a x+K a a a a d e ) )+a a a a a e x.)+a e e e 7 C e d a e a t+",
"a+e d a a d O e a o ) *.a e h a e a a )@>#h d a a e g@C a h d a a d v+/+h e a e a e ) )+a d e a h e 2@F a a e a ] 8+e a a a d ) ",
"(.z e h h e a e e d T+e+e d a e a d a M+^+e e a h a M+V+e a h a a a I++@e a a h e e ' 3.e a d d a d w+e+e e a a ' T a a e h L ##",
"8+a e a a a d d a a } ,#e d d a e e a 6 ..a h h e a 6 }.a a e a e h ) o@e a e a d a . .+e e d a e a 6 ].e e a a T+S a a e a o L+",
"$+C@.+Y+U.V+3.W O@_.} `+/@'.'#[++.e+|@u S+S+^+e+)+O+j.h.M._.M.G K@l.6  @c+j+S |+'+S.*# @U.r 3.M.M l.##+@h+J )#^.!#V+d.O+|+z. ., ",
"@@K.l p G )@P+o K.f G ;@~#K.K.l p t D.f p ;@V p r.D.*+t.*@y.y.^.K+R a e >.K.K.l l e@u.h h K.f L.Z.e a f f G % r.o K.o a B f G -.",
"B a a a d M+z.e a e h B @+>.a a e ;@x a a b /+d e a e a a a d /+F.h+h a e L e >.e I.P@e h a a 6 i.e e a a e > _.a e a e e a e )@",
"v a a e a K+W a a a d B y a h a h ;@Z a a U $+x e a a e a e e e G.D@a d e e a h h #@ .a d a a 6 M e a a h a } Z e d a a e a a t+",
"|.a a a a . ^+a a a a >.4.a d e a s.M a e R 4.A e a a a e d e a q.{#a e a o e a a u.Y a a a a L+1.e a a L a { e.e d h e a a a ' ",
"_@e a a d j.]#a e d a e ,+e e a a y.b.a e D 4.)+e a h a h a e a s.^#h e h a d a e u.r o h e d $ *.a e e a e I ;+a a a e a >.a ( ",
"3.U@^+..>#(+6+Y+@.C 3.N+M #.,+3.}+v {#,+,+A /#(#S+'+U. .|@Z.~.Y -@h+{+U.d+}.~.9+Y i |.F Z %+z > 1.@.9+C '+l.-@].g+d+}.].F &.i.##",
"p.l p *+p b &@s &@t.t.*@*@D.s.q.-.v D.t.p.*@t.p.y.p.;@u.'@+ f f U U *+b i '@+ G p b D.q+~.G U G *+r.x.s *+*+G *+s r.{.' p p &@v+",
"g L a e e e a e e a h a a d h a  +T a a e a a e e a e h *+%.e h e a a d a {.( a e a h ] _@e a e e e 7 b d e a e a a e . e h L D+",
"|.e L a e d a h e a a z e e h h 7 S e a a a a h e e e e p / o h L a e L a -@^.a a a a D+..o a a z e % ~.a a e a a a e R.a e a ' ",
"V+e e a a a a h a e e a e a a a t+Y+e a a o a e a a a L f l.e a e e a a e 8.R.a e a a % [+a a a e a 6 y@e a a e e a a w a e a L+",
",.a a a a e a e d a a h a h e a % ,#e a e h a e a a >.e >.r@7.e a a a a a D.%.o a a a T+]+d z a a a T+_@d h e a a d a @@e e a + ",
"S+3@j+e.@+)+J z 4. .R /+D.R i C.-._#:#c+g+3+3+].S }.^+V+|+m@:+Y+,+C C 9+N+f m@|++@i.G ##(#Y+U.3.W ~.##].,+:@%+y >.b &@/+d+|@Y ##"};
