/* XPM */
static char * player_xpm[] = {
"8 8 32 1",
" 	c None",
".	c #179539",
"+	c #149233",
"@	c #179537",
"#	c #4CB674",
"$	c #42B16B",
"%	c #11902F",
"&	c #0E8A24",
"*	c #47B26D",
"=	c #96D7AB",
"-	c #8BD1A3",
";	c #39AB60",
">	c #09841A",
",	c #067D10",
"'	c #46A455",
")	c #B4E9C3",
"!	c #A5DFB6",
"~	c #329942",
"{	c #3B9B44",
"]	c #B2E7C1",
"^	c #A0DCB0",
"/	c #258E2F",
"(	c #3D9D47",
"_	c #B3E8C2",
":	c #A1DDB1",
"<	c #289033",
"[	c #36983F",
"}	c #9EDBAC",
"|	c #8ED19D",
"1	c #248D2D",
"2	c #2E9232",
"3	c #2A8F2E",
"   .+   ",
"  @#$%  ",
" &*=-;> ",
" ,')!~  ",
"  {]^/  ",
"  (_:<  ",
"  [}|1  ",
"   23   "};
