/* XPM */
static char * south_xpm[] = {
"64 64 468 2",
"  	c #171515",
". 	c #201D1D",
"+ 	c #241F1F",
"@ 	c #161313",
"# 	c #020202",
"$ 	c #211E1E",
"% 	c #252020",
"& 	c #211D1D",
"* 	c #1F1C1C",
"= 	c #1B1818",
"- 	c #131011",
"; 	c #272222",
"> 	c #2A2423",
", 	c #1E1B1B",
"' 	c #1E1A1A",
") 	c #241E1E",
"! 	c #151212",
"~ 	c #231F1F",
"{ 	c #262121",
"] 	c #221E1E",
"^ 	c #191616",
"/ 	c #222020",
"( 	c #262021",
"_ 	c #242020",
": 	c #030303",
"< 	c #1D1D1D",
"[ 	c #252121",
"} 	c #231E1F",
"| 	c #1F1B1B",
"1 	c #161414",
"2 	c #070707",
"3 	c #282222",
"4 	c #241F20",
"5 	c #0D0B0B",
"6 	c #121212",
"7 	c #292323",
"8 	c #231E1E",
"9 	c #0B0A09",
"0 	c #171616",
"a 	c #201C1C",
"b 	c #221D1D",
"c 	c #1D1818",
"d 	c #050505",
"e 	c #191818",
"f 	c #232121",
"g 	c #272525",
"h 	c #2B2525",
"i 	c #212120",
"j 	c #242322",
"k 	c #272424",
"l 	c #292626",
"m 	c #2A2625",
"n 	c #302929",
"o 	c #252323",
"p 	c #242222",
"q 	c #2F2828",
"r 	c #262626",
"s 	c #262323",
"t 	c #2B2727",
"u 	c #2A2626",
"v 	c #272828",
"w 	c #212020",
"x 	c #222121",
"y 	c #312A2A",
"z 	c #040404",
"A 	c #282727",
"B 	c #292525",
"C 	c #282524",
"D 	c #282525",
"E 	c #2D2626",
"F 	c #0D0C0C",
"G 	c #312B2B",
"H 	c #1F1A1A",
"I 	c #191919",
"J 	c #2D2828",
"K 	c #1A1919",
"L 	c #282424",
"M 	c #2D2727",
"N 	c #322C2C",
"O 	c #141212",
"P 	c #1B1B1B",
"Q 	c #222120",
"R 	c #242323",
"S 	c #201F1F",
"T 	c #202020",
"U 	c #252525",
"V 	c #1F1F1F",
"W 	c #20201F",
"X 	c #212121",
"Y 	c #2C2727",
"Z 	c #292424",
"` 	c #1F1E1E",
" .	c #232222",
"..	c #2C2626",
"+.	c #0F0F0F",
"@.	c #1E1E1E",
"#.	c #222221",
"$.	c #1C1919",
"%.	c #181818",
"&.	c #302A2A",
"*.	c #1B1717",
"=.	c #342C2B",
"-.	c #242424",
";.	c #2B2526",
">.	c #342D2D",
",.	c #101010",
"'.	c #2B2323",
").	c #1A1A1A",
"!.	c #1E191A",
"~.	c #272121",
"{.	c #2A2525",
"].	c #050404",
"^.	c #2C2828",
"/.	c #232221",
"(.	c #292726",
"_.	c #2B2726",
":.	c #2A2828",
"<.	c #2E2929",
"[.	c #282828",
"}.	c #1F1F1E",
"|.	c #060606",
"1.	c #2F2C2C",
"2.	c #27201F",
"3.	c #252222",
"4.	c #1C1818",
"5.	c #2B2626",
"6.	c #2F2B2B",
"7.	c #272323",
"8.	c #292524",
"9.	c #080808",
"0.	c #2E2B2B",
"a.	c #2C2525",
"b.	c #272626",
"c.	c #2E2A2A",
"d.	c #2A2424",
"e.	c #2F2929",
"f.	c #332B2B",
"g.	c #2E2828",
"h.	c #090909",
"i.	c #352D2D",
"j.	c #292625",
"k.	c #282423",
"l.	c #1C1B1B",
"m.	c #261F1F",
"n.	c #272727",
"o.	c #282323",
"p.	c #282626",
"q.	c #232323",
"r.	c #222222",
"s.	c #010101",
"t.	c #030202",
"u.	c #040303",
"v.	c #060505",
"w.	c #090908",
"x.	c #0B0B0B",
"y.	c #0A0B0A",
"z.	c #0A0B0B",
"A.	c #0B0A0A",
"B.	c #0E0D0D",
"C.	c #0D0D0D",
"D.	c #0B0C0C",
"E.	c #010000",
"F.	c #2E2728",
"G.	c #2E2727",
"H.	c #302828",
"I.	c #312B2A",
"J.	c #181615",
"K.	c #141414",
"L.	c #2D2827",
"M.	c #2F2928",
"N.	c #2A2425",
"O.	c #181414",
"P.	c #342C2C",
"Q.	c #2B2524",
"R.	c #0F0E0E",
"S.	c #181616",
"T.	c #221F1F",
"U.	c #322B2B",
"V.	c #1E1D1D",
"W.	c #332C2C",
"X.	c #2D2625",
"Y.	c #161616",
"Z.	c #1D1919",
"`.	c #22201F",
" +	c #0E0E0E",
".+	c #342C2D",
"++	c #060707",
"@+	c #2F2A2A",
"#+	c #1F1C1B",
"$+	c #1C1B1A",
"%+	c #222424",
"&+	c #222021",
"*+	c #171313",
"=+	c #242221",
"-+	c #292222",
";+	c #302829",
">+	c #262423",
",+	c #201D1E",
"'+	c #211C1C",
")+	c #1D1918",
"!+	c #1A1616",
"~+	c #181515",
"{+	c #1D1C1C",
"]+	c #281F1F",
"^+	c #1D1B1B",
"/+	c #1D1A1A",
"(+	c #252322",
"_+	c #141313",
":+	c #1A1717",
"<+	c #232322",
"[+	c #262222",
"}+	c #261E1E",
"|+	c #272020",
"1+	c #2A2727",
"2+	c #242121",
"3+	c #201F1E",
"4+	c #262424",
"5+	c #1A1716",
"6+	c #2D2929",
"7+	c #2D2A29",
"8+	c #2C2A2A",
"9+	c #1B1616",
"0+	c #2F2827",
"a+	c #2B2828",
"b+	c #252424",
"c+	c #2D2726",
"d+	c #242120",
"e+	c #1C1C1C",
"f+	c #111111",
"g+	c #2C2424",
"h+	c #121111",
"i+	c #221B1B",
"j+	c #262322",
"k+	c #1E1D1E",
"l+	c #201A1A",
"m+	c #241D1D",
"n+	c #1D191A",
"o+	c #171717",
"p+	c #1A1818",
"q+	c #000000",
"r+	c #090808",
"s+	c #131212",
"t+	c #090809",
"u+	c #070808",
"v+	c #050606",
"w+	c #111010",
"x+	c #1E1A1B",
"y+	c #141111",
"z+	c #131313",
"A+	c #221E1D",
"B+	c #171414",
"C+	c #1C1A1A",
"D+	c #1E1A19",
"E+	c #191717",
"F+	c #2F2A29",
"G+	c #1F2121",
"H+	c #272524",
"I+	c #352E2E",
"J+	c #090A0A",
"K+	c #100F0E",
"L+	c #393030",
"M+	c #2D2728",
"N+	c #262525",
"O+	c #0E0E0D",
"P+	c #110F0F",
"Q+	c #191615",
"R+	c #201919",
"S+	c #171413",
"T+	c #151313",
"U+	c #151312",
"V+	c #221C1C",
"W+	c #232021",
"X+	c #191716",
"Y+	c #151213",
"Z+	c #232424",
"`+	c #211C1B",
" @	c #1E1F1F",
".@	c #181717",
"+@	c #242525",
"@@	c #1F201F",
"#@	c #1D1E1D",
"$@	c #151515",
"%@	c #161515",
"&@	c #292727",
"*@	c #211F1F",
"=@	c #252626",
"-@	c #0C0A09",
";@	c #1A1515",
">@	c #191515",
",@	c #100D0D",
"'@	c #1A1B1B",
")@	c #121313",
"!@	c #141213",
"~@	c #1E1C1C",
"{@	c #131111",
"]@	c #0C0C0C",
"^@	c #121010",
"/@	c #1B1919",
"(@	c #1B1A1A",
"_@	c #161413",
":@	c #171718",
"<@	c #100F0F",
"[@	c #181514",
"}@	c #111110",
"|@	c #0D0C0B",
"1@	c #111212",
"2@	c #0A0A0A",
"3@	c #1E1B1A",
"4@	c #181817",
"5@	c #362E2E",
"6@	c #2E2928",
"7@	c #2E2827",
"8@	c #372F2F",
"9@	c #302928",
"0@	c #2A2726",
"a@	c #332C2D",
"b@	c #222122",
"c@	c #262221",
"d@	c #1F1D1D",
"e@	c #352E2D",
"f@	c #292423",
"g@	c #2B2B2B",
"h@	c #302B2B",
"i@	c #282221",
"j@	c #232020",
"k@	c #201E1E",
"l@	c #0F0D0D",
"m@	c #282526",
"n@	c #232120",
"o@	c #23201F",
"p@	c #262120",
"q@	c #161212",
"r@	c #120E0E",
"s@	c #292322",
"t@	c #1D1A19",
"u@	c #0A0A09",
"v@	c #1C1717",
"w@	c #100E0E",
"x@	c #111011",
"y@	c #201B1C",
"z@	c #1B1718",
"A@	c #181919",
"B@	c #272122",
"C@	c #252120",
"D@	c #231F1E",
"E@	c #292526",
"F@	c #342D2C",
"G@	c #332D2C",
"H@	c #1D1E1E",
"I@	c #2C2625",
"J@	c #201C1B",
"K@	c #221E1F",
"L@	c #252221",
"M@	c #0C0C0B",
"N@	c #292828",
"O@	c #231E1D",
"P@	c #262020",
"Q@	c #262625",
"R@	c #2E2525",
"S@	c #2B2625",
"T@	c #1F2020",
"U@	c #2A2928",
"V@	c #2A2222",
"W@	c #151414",
"X@	c #2C2928",
"Y@	c #2A2827",
"Z@	c #2A2A29",
"`@	c #1F2120",
" #	c #2B2827",
".#	c #2A2A2A",
"+#	c #0F0C0C",
"@#	c #171514",
"##	c #161514",
"$#	c #221F1E",
"%#	c #1B1B1A",
"&#	c #1A1A19",
"*#	c #161717",
"=#	c #0F0D0E",
"-#	c #181313",
";#	c #201B1B",
">#	c #302A29",
",#	c #2C2827",
"'#	c #2C2627",
")#	c #1C1918",
"!#	c #131010",
"~#	c #312929",
"{#	c #2C2929",
"]#	c #292425",
"^#	c #0C0B0B",
"/#	c #0B0808",
"(#	c #242423",
"_#	c #272221",
":#	c #141314",
"<#	c #272726",
"[#	c #211D1C",
"}#	c #151413",
"|#	c #25201F",
"1#	c #251F1F",
"2#	c #252423",
"3#	c #2B2627",
"4#	c #251E1E",
"5#	c #2A2524",
"6#	c #2B2424",
"7#	c #2D2C2B",
"8#	c #202120",
"9#	c #141413",
"0#	c #2A2929",
"a#	c #1B191A",
"b#	c #1A1718",
"c#	c #181918",
"d#	c #0E0C0C",
"e#	c #211F1E",
"f#	c #1A1918",
"g#	c #21201F",
"h#	c #0E0D0E",
"i#	c #1B1817",
"j#	c #1D1A1B",
"k#	c #181516",
"l#	c #1B1F1E",
"m#	c #282425",
"n#	c #1C1D1D",
"o#	c #181413",
"p#	c #1B1A19",
"q#	c #191414",
"r#	c #1E2020",
"s#	c #1E1718",
"t#	c #231D1D",
"u#	c #212323",
"v#	c #2E2D2C",
"w#	c #292929",
"x#	c #121211",
"y#	c #171818",
"z#	c #302B2A",
"A#	c #322C2B",
"B#	c #2E2829",
"C#	c #262223",
"D#	c #1C1B1C",
"E#	c #211B1B",
"F#	c #282121",
"G#	c #10100F",
"H#	c #191918",
"I#	c #1E1E1D",
"J#	c #1D1817",
"K#	c #312A29",
"L#	c #2C2728",
"M#	c #1D1D1C",
"N#	c #2D2928",
"O#	c #272423",
"P#	c #080909",
"Q#	c #322B2A",
"R#	c #2D2A2A",
"S#	c #1F1818",
"T#	c #241C1C",
"U#	c #231B1B",
"V#	c #241B1B",
"W#	c #1C1817",
"X#	c #0F1010",
"Y#	c #2A2323",
"Z#	c #251D1D",
"`#	c #231C1C",
" $	c #282120",
".$	c #2C2222",
"+$	c #26201F",
"@$	c #2B2423",
"#$	c #2F2626",
"$$	c #2B2222",
"%$	c #2D2525",
"&$	c #282322",
"  . + @ # $ % & & * = - # ; > ; , ' ) ! # ~ { % ] ^ # / ( _ % %   : < [ [ + } | + 1 2 $ 3 4 % 5 6 ~ 7 & 8 8 9 0 ; ] % a b b c d ",
"e f g h : i j k l k m n : o p k o o k q : r s t u n : v w x k u y z A p p B C D B E F x p B G H I j C s u J b K L o s B L M N O ",
"P i Q M z R x S T w k M z U V W w X T M : A S w W Y z Z ` x w w n d l x  .w p V w ..+.V S w t b < @.#.o i L $.%.x w T w w w &.*.",
"[ W V =.: -.f x p i w y : U T i X w  .M z D w  .x ;.: g f S V  .>.z l S T T x w S q ,.@.w i L 8 '.V w i x t 8 ).V w T W x T u !.",
"~.W V {.].^.S /.w w W t z (.X T w p k _.z :.T X V <.: [.V }.V W G |.1.T T V W  .w =.+.V w x C + 2.T w o S 3.& ` x T T w w V Y 4.",
"+ h B l z >.5.6.7.8.h k 9.0.L 5.a._.b.k : c.d.e.M k z f.Z Z 7.g.M h.i.<.l t g.j.k.M 0 :.U U x l.m.c.n.B n.g ).o.B p.-.q.r.V 5.' ",
"s.: : : # t.: : : : s.: # t.: : d z z z : u.].d v.z z d v.d d ].|.z d d d d d d ].u.w.x.y.z.|.|.z z : A.B.|.z z ].t.C.D.x.x.].E.",
"S F.{.g.{.Z G.G.H.| : / {.I.J.K.j.G.L.M.N.O.I p L.P.g.q {.Q.R.S.B Y B 8.3.Z E H.3 2 T.Y &.G U.i.<.n d T e.y G N g.|.V.W.&.P.X.# ",
"p Q w #.W w x w /.d.: @./.D * Y.S V V w B 8 V @.x w V i V j.Z.`.V f }.S }.p k f W. +{ w x w S T /..+++p.w T Q x @+x.< x p u q # ",
"o.S /.@.w j S T S g.: @.w D & ).V S w w l + < V w x w S V k #+$+V T ` V S T T W M 4.r.i o  .w T x Y ,.%+S p V &+L *+@.=+x x {.# ",
"-+V f x  .o x x  .;+: < x >+3 l.@.w T w o + ,+V i S w ` f s #+'+V T ` W V p X S <.)+'+w S j w /.x t !+-.S W V S Y ~+q.w T w M.# ",
"D V V V w V S T V {.z {+T o ; * V V V V k { ]+V x w i V f x ^++ T x S X T i x V m /+h @.S T W V V (+_+G.V ` ` w B :+<+S V T [+# ",
"}+|+E 1+3 o 2+~ 3+[ # B X 4+K 5+6+7+8+{.x < 9+q M 0+6.a+b+r.%.*+a.h Y c++ d+V.` e+f+H ..g+g+Y 7.2+[+h+i+(+j+u k+.  +l+m+n+o+p+q+",
"r+s+t+d u+v+++2 z z z w+| /+b Z.= Z.O |.0 #+/+Z.4.B.|.e & } ~.+ +   2 0 x++ $.*.:+y+|.z+* A+, $., B+d h+C+] & D+z s+, H b Z.~+z ",
"E+s <.Y G F+I.@+6+i.h.G+p H+J &.C &.I+2 b+s F+L.B i.x.V 3.u t s o i.J+V s D t Y J &.K+` B D >+Y s f.2 < o D 4+L+h.l.f Y k B U.w+",
"^+}.T S x i w i i e.B.o.T w f  .x f M+C.N+V w W w y h+@.V x f w (+&.O+r.W S S x V Y *.< #.w W w V I.9.{+S f w g.P+o x V x w u Q+",
"R+S p S p S f w V t *.2+V x k w T X J P+r V w / o J S+@.w Q  .T w e.,. .T S p T  .J 1 e+w x p T Q J T+C V S S Y U+[+w x o x Y c ",
"V+V X V x w w x V J Z.W+T p / S V V D ^ L W V w w y X+@.w i Q x #.B Y+Z+` @.S x W J $.x V  .i x }.J !+B i }.W e.4.{ w f  .w &.)+",
"`+q B  @@.< V V W p .@a.D +@@@< T #@/ $@g.#@V  @S /.1 g V V V T T D %@Y o.{.&@q.V *@0 t e.A =@@.@.f 1 Q.G.V T p   3 -.@. @q.2+1 ",
"-@;@>@>@C+).K.6 6 h+9.,@!+'+{+'@Y.I )@x.!@4.K ~@o+%.C.{@K $@6 ,.,.s+]@^@/@W C+< e (@ +_@= 0 :@K e+Y.x.<@p+[@z+}@2 |@%.0 S.1@K.2@",
"p _.J 3@4@e.5@<.<.6@e.y 2 r.e.G <.e.{.2 s U.L 5.q 5.m {.k.q 7@o.7.M ..{ h.R <.8@>.9@9.f J W.' K.0@@+a@W.4.  ^.W.J J 6@t g.5.o.2 ",
"R W x o.%.p o /.w T p W.2@r.S i i x N 9.V.w T x X w V f x p k o 4+p D f.h.b@@.w o N 9.< Q B } S.S f S L { o+i p w w  .w T f g.h.",
"*@W o c@o+w w Q T T p <.]@T V f 3.V &.h. @S T i w w i T #.V V w o T x U.h.q.x W S J y.X T o T.Y.V S ` p _ d@` i p x i T S @.t >@",
"{ w p Z ).V S T x w V <.!+N+w W w w I+9.{.` V V x p w W f V V T x /.w e@x.f@S i S 6@<@N+T w o.$ T p W f o.C+w x w w w S w V Y :+",
"[ S f 7.7.@.x V X w V B E+g@i V V V D h.{.V V V V V w @.w T V @.` w i h@2@B V i T >+ +f S f d.`.X i w x [+k.q.V V V V W V V k S.",
"d@i@/ e l+g+7.T.`.& ] m.w+{ o T.a.j@k@l@|+..h w j+m@; j@n@T.d@n@o.V.P o@x.j@p@m./ x ,.2+2+$ S.q@b+< ` 2+l.r@s@'+t@2+| H *@0 /@u@",
"^@!+v@9+*.B+@ w@J+2 d %@~+T+w.w+= = = *.B+h.x@K y@| :+= *.{@2@,.= ^ = z@^ 5+w++.2@h.A@. B@C@D@8 & S.2 (@A+/+a + *.d {+> { 3 *.s.",
"f t &.Y g.k 5.j.I.3 |. .J &.4.@.3.G 5.6@i.t@3.w u Y E@u u i.:+d@L B g.t e.g G F@i.2@o x u l u o s 5@9.-.D g k D G@9.X Y B g.E # ",
"H@w V w w w w x x I@|.X V J J@R V p w w k * T.S w ` x o S J Z.K@V w w p S S x T 6+B.x V x S X j S e.9.L@V i @.W U.M@S w o s ..s.",
"X.T T S S V S ` f G.|.N@w k O@4+V x p R D & ) T w W  .i W o /+P@V V V T i S V T Y T+L V p W / o  .G C.D T x w /.W.]@X w x w d.# ",
"d.V x w T T T S Q e.|.Q@V k ] R@T w T p k ~ . S Q i S w X u 8 ] V V V V T w S V e.  L S w  .T p w D @ f x S T w u s+T S S x g.# ",
"n o S@u {.^.J T@@.p |.U@@.w ^+V@@.V V w w d@; p.V i < S S o C+{ L ^.a.Y {.u T@ @j@W@L.t Z 0@X@^.Y@j W@g.G.M Z@`@V z+ #^..#X f s.",
"+#q@@#*+~+*.B+##1@<@|.1 *@).f+^@$#e+< _ < 6 ^@~ q._ 4+V @.< f+ +*.P C+(@%#&#S.0 *#]@P+' E+!+>@>@(@[@h.=#O.-#q@!+K.h.z z z : # s.",
"{+J f.% x.B Y e.n Z E ;#2  .>#J e.q &.a 2@R <.y I.P@F a+g.,#'#Y % C.&@Y U.Y G &.J b )@j.y _.i.O S 3.I...M &.P+^+D &.n q g...h |.",
"Y.T p d.6 V T S 4+w s P.9.X V x /.w >+..2@-.X x >+H.]@p. .x f w B C.o w R x T R p Z f+@.X w <.)#T V 4+/.x Y Z.I S Q x s W X G !#",
"P o i ..,.V w x x T S g.9.x j.f W T S L.2@U Q x 4+y ]@q w T x L i.]@>#/.R x #.p f d.z+S  .T Y /@Q x T f }.J Z.).V V i x W V J O.",
"(@w p ~#*.T@i S w i X e.9.&@T @./ V p f.2@N@w w f g.]@{.T w w x &.C.B T x i i V x e.K.T T T o a o.T W T  .L b < w V w w w S 6@!+",
"|+V w 5.*+{#S V @.w w u h.]#w V w T i M.2@l @.V S j.^#4+V w w /.l ]@..V x @.V V V {.$@V ` W s & E V S V V p ^+T V }.V W T S B *.",
"8 b.V /@/#C ^.2+[+Z U T 2 D 3 l (#q.V . 2@m l R a+{+x.Z B N+a.p R ]@G.^._#Z p.<+b.x :#<#@.e+P _+[#t s Z *@l.}#[#4+-.S T ).I (@w@",
">@a '+b |##+* ^ |.%@#+a & T+2@^+& & a R.R.(@. a 2@$@] a b :+2@0 & p+% /+t@Z.Z.4.h.w+] & ] ] '+Z.c *.^ c ^ :+4.Q+_+h.z+a A+] , d ",
"1#o u B J k (+>.B.S s o k >#f+2#s {.g.d.z+V D >.<@@.B o D 5@x.X 4+p u 5.J g.6@u E = 7.s ,#B k l e.u B j.3#u 6@g.W.8 o+p u s e.- ",
"4#i T W S T w <.C.e+V w x g.6 V w w x 7.,.T T t }@D V T T &.T+X V V S 3.i S T w 5#z+S w w S w p f  .w w S V x x p ~ %.}.o w Y ! ",
"-+V R i T w w E@^ < T w S L.o+< T @.p ..K @.X e.~+(#w x w u ^ t V R x w S S w x e.K.V W w w S  . . .S x w S V V u 3 ).w w V g.:+",
"[+}.X i x W /.t = e+` x T <.Y.` p w i g.K.W W D   T S T /.J *.D W w @.f x S V X Y %.T T S W S T T @.S w p V V T _.; I Q w X 5.H ",
"6#J :.6.7#-.` >+0 1+8#V < o S.g X S @.=+[@r.V / 9#L X @.` l %@&.:.0#h@b+w X V X _.a#s 1+X V T V ` V o V V V T w 5.o.w V S S 3.b#",
"w+/@^ *.c#_+f+f+9.d#/@f `.e#/@e#$ K h+_+f#$ *@C+X+w@/@x g#s . , )#h#C.I * p+i#!+O 9.F e j#* /+$.k#h.h.K ^+a , B.C.K ^+{+, , 6 # ",
"2+g.J 8@8@@+W.L y , o+x D 5.B Y u U.% K.x J >+B e.6#K.V o >+p <.e.% s+p l C Y G G d.,.o j.m J t F@% 1 X D 6@g.; l#T o l m#u 7 # ",
"n#T #.x f x /.@.o ; o#g S w V W w k 3 W V V w W o ..Y.S T w V w D [ z+S S p i w S o.e+T x X S x x 7 I T V x T G.K @. .X w /.E # ",
"{ w Q w T w T T w ; S.E T T w S S p o.. V w S x D [ o+V x T x T /.h Y.V S V w / w o.p#V #.S T x / d.{+S /.T w o.q#r#T w  ./...# ",
"7 w S /.X /.W w k y B+7@w w Q w  .H+o.s#< V S T x [+o+V V X x R o 6#t#V S w g#f w Y '  @V T T V s a.{+V w w  .../@G+x w p T 5.# ",
"J @.@.V @.T T w T k B+h@/ @.V V V T 3.!+u#@.x T S p ` T@V T S @.W *@c 6+N@}.X S X / p+v#@.x T T V n@X+s V T w s   w#X W V V / # ",
", T X < ~@}.k@< (@e 2 ' 3.x r.< e+;#0 h+d@T.w T I *#^#W@f++.+.+.,.x#W@2+V.%.I K.$@_@+.f P y#$@s+@.e   %.z++.f+6 _@*@o+I %.K. +# ",
"I t t &.5@++S Y e.&.6@..z+o _.m z#| %.<.F+d.+.j.e.M t e.Y n M G.S+P o A#L.B#u e.&.^ &#Y t <.F@B.b.2+&.&.U.U.O ` =+s u B J u ,#d ",
").S x S &.9.T T X T f 5.Y.@.S T B 1#).@.V ..+.V / i T p W W o Y | W S V S w w w 3#| e+V X  .Y ~+C#w W x X L 1 b+V W Q i T x ,#h.",
"n#V w T e.+.T w x T w 6@Y.T j x H+_ ).X T y *#N+V x  .3. .w S {.& D#T x x / W x J ~ < w T x J B+|+V S w f Y E+j@@.x S  .w x J P+",
"7 W i w e.4.X T S i x J %.V T T B _ I w w g.}#&@S T x p  . .Q L ~ ] V @. .S S i s & < T T x t :+E#V.S @.Q u Z.[  .x f w T w <.B+",
"F#V T T >+p+n.V V V T l o V @.}.i / ).T x Y ;@M+V V T S w V }.p * ;  .V T W V ` p d@w @.V V D = ~ V T V T x /+E X V V V V @.L J.",
"` V < @.*@G#p e+P I I I s+` o+Y.H#S.1 I I &#d V@g P V K.%@P T S 4@T+B ` V '@(@e+e+o+_+p+V.e+{+F (@I#e x < (@6 J#/.P .@i @.).(@h.",
"e+u s D g.<.g.m ..M 7@J K#q n G.|.k e.&.U.n e.P.q g...q $. +w L#N J ,#&.e.:+6 x I.G e@9.` B i.&.F+P.h.M#Y @+F@J g.t h F p &.W.|.",
"T V w i f x V w =+X x V x X  .N#|.r.w X O#/.w Q w W V =+{.,.@. .S w w w k |#K.X p w y ]@x S V @.` &.B.e+x #./.w x T t F V o &.J+",
"}.S Q x w X x T S x x o w V p t P#-.V T p S S T w W S p Q#,.@.w X T w V k [ z+S /.w W.! l V W w p B >@< T x i w w V t 6 T w Y B+",
"p w S T  .V T V V T x V 4+T W t R.R#` x w S S S /.w V w U.K.@.W V w X W o ; $@@.p  .,#9+_.x i x Q t *+` p  .w @.w S y f+V w Y >@",
"E T S V w ` T @.w V w w S x V Y T+N V V V X V ` T V < V k *.-.@.T T V S T k@l.V w T Y 1 g.T S T T o O r.V S S V S V J z+@.}.5.! ",
"q#/+v@*.S#*.T#m.U#V#W#z+,.X#f+W@u.b Y#T#4#Z#`# $.$+$1#] c#,@{.@$t #$h j@[ ~+%@~.* }.{+]@b $$%$L ] ~ R.T#L T.j@e+/ K * A.&$a _ h+"};
