/* XPM */
static char * wall_xpm[] = {
"64 64 349 2",
"  	c #775C55",
". 	c #765B54",
"+ 	c #6E554F",
"@ 	c #564442",
"# 	c #403535",
"$ 	c #312C2C",
"% 	c #2C2827",
"& 	c #403633",
"* 	c #544340",
"= 	c #69524C",
"- 	c #6A524D",
"; 	c #574542",
"> 	c #453938",
", 	c #312C2B",
"' 	c #302B2A",
") 	c #3F3433",
"! 	c #534240",
"~ 	c #67514C",
"{ 	c #745A53",
"] 	c #755A54",
"^ 	c #6B534E",
"/ 	c #574642",
"( 	c #433836",
"_ 	c #232323",
": 	c #222222",
"< 	c #755B54",
"[ 	c #6E5650",
"} 	c #594643",
"| 	c #433736",
"1 	c #69524D",
"2 	c #6B544E",
"3 	c #584742",
"4 	c #443937",
"5 	c #403634",
"6 	c #554441",
"7 	c #68514C",
"8 	c #594743",
"9 	c #453A37",
"0 	c #322D2C",
"a 	c #725852",
"b 	c #735953",
"c 	c #715851",
"d 	c #67514B",
"e 	c #564441",
"f 	c #423736",
"g 	c #302B2B",
"h 	c #2B2827",
"i 	c #3D3432",
"j 	c #51423F",
"k 	c #66504B",
"l 	c #735952",
"m 	c #745953",
"n 	c #715852",
"o 	c #705751",
"p 	c #68524C",
"q 	c #564541",
"r 	c #2E2A29",
"s 	c #3E3532",
"t 	c #52433F",
"u 	c #634E49",
"v 	c #584642",
"w 	c #342D2D",
"x 	c #272525",
"y 	c #262524",
"z 	c #252424",
"A 	c #262525",
"B 	c #6A534D",
"C 	c #6B534D",
"D 	c #6B544D",
"E 	c #5C4945",
"F 	c #4D3E3D",
"G 	c #3D3332",
"H 	c #2A2726",
"I 	c #383130",
"J 	c #4C3E3C",
"K 	c #5F4B47",
"L 	c #69534D",
"M 	c #5F4C47",
"N 	c #4E403D",
"O 	c #3E3534",
"P 	c #2E2929",
"Q 	c #2A2727",
"R 	c #393130",
"S 	c #4B3E3B",
"T 	c #5B4844",
"U 	c #604C47",
"V 	c #53443F",
"W 	c #37302F",
"X 	c #2F2A29",
"Y 	c #2D2929",
"Z 	c #2E292A",
"` 	c #2F2A2A",
" .	c #5D4A46",
"..	c #5A4743",
"+.	c #5A4844",
"@.	c #5B4845",
"#.	c #564542",
"$.	c #463A38",
"%.	c #372F2F",
"&.	c #2C2927",
"*.	c #292726",
"=.	c #342E2E",
"-.	c #433837",
";.	c #534340",
">.	c #5D4945",
",.	c #5B4945",
"'.	c #544440",
").	c #383030",
"!.	c #2C2828",
"~.	c #292727",
"{.	c #352E2D",
"].	c #453937",
"^.	c #52423F",
"/.	c #50413E",
"(.	c #3D3433",
"_.	c #38312F",
":.	c #373030",
"<.	c #2B2727",
"[.	c #262424",
"}.	c #4F3F3D",
"|.	c #4E3F3D",
"1.	c #4D3F3D",
"2.	c #4A3D3A",
"3.	c #3F3534",
"4.	c #332D2C",
"5.	c #322C2B",
"6.	c #3B3231",
"7.	c #483B39",
"8.	c #3E3433",
"9.	c #292626",
"0.	c #322C2C",
"a.	c #3C3332",
"b.	c #493C3A",
"c.	c #473B38",
"d.	c #443936",
"e.	c #423836",
"f.	c #413735",
"g.	c #362F2E",
"h.	c #2E2A2A",
"i.	c #483C3A",
"j.	c #483B3A",
"k.	c #493B3A",
"l.	c #493C3B",
"m.	c #3A3231",
"n.	c #272625",
"o.	c #463A39",
"p.	c #443837",
"q.	c #463938",
"r.	c #473B39",
"s.	c #282626",
"t.	c #312B2B",
"u.	c #393030",
"v.	c #473A39",
"w.	c #393131",
"x.	c #493C39",
"y.	c #282625",
"z.	c #2F2B2A",
"A.	c #38302F",
"B.	c #413634",
"C.	c #3C3333",
"D.	c #3D3333",
"E.	c #413736",
"F.	c #463A37",
"G.	c #423735",
"H.	c #453A38",
"I.	c #3A3131",
"J.	c #2D2928",
"K.	c #3E3434",
"L.	c #332D2D",
"M.	c #423737",
"N.	c #403635",
"O.	c #352E2E",
"P.	c #413635",
"Q.	c #2C2929",
"R.	c #413636",
"S.	c #272626",
"T.	c #3F3533",
"U.	c #242323",
"V.	c #2C2928",
"W.	c #352F2E",
"X.	c #362F2F",
"Y.	c #272524",
"Z.	c #3B3331",
"`.	c #352F2D",
" +	c #3B3232",
".+	c #393230",
"++	c #252423",
"@+	c #2B2828",
"#+	c #342E2D",
"$+	c #312C2A",
"%+	c #242423",
"&+	c #2A2626",
"*+	c #242424",
"=+	c #252323",
"-+	c #2A2828",
";+	c #282525",
">+	c #2B2927",
",+	c #232322",
"'+	c #423835",
")+	c #342E2C",
"!+	c #3C3331",
"~+	c #413734",
"{+	c #433835",
"]+	c #3F3634",
"^+	c #3E3432",
"/+	c #423734",
"(+	c #362F2D",
"_+	c #594742",
":+	c #4F403D",
"<+	c #574641",
"[+	c #594843",
"}+	c #584643",
"|+	c #443836",
"1+	c #51423E",
"2+	c #5A4843",
"3+	c #5A4744",
"4+	c #574643",
"5+	c #37302E",
"6+	c #624D48",
"7+	c #2E2928",
"8+	c #66504A",
"9+	c #614C48",
"0+	c #52423E",
"a+	c #4D3F3C",
"b+	c #604B47",
"c+	c #5E4B46",
"d+	c #65504A",
"e+	c #6C544E",
"f+	c #68524D",
"g+	c #53433F",
"h+	c #4B3D3B",
"i+	c #50413D",
"j+	c #6F5750",
"k+	c #6F5650",
"l+	c #67504B",
"m+	c #322D2B",
"n+	c #634E4A",
"o+	c #6E564F",
"p+	c #6E5550",
"q+	c #51413F",
"r+	c #6D554F",
"s+	c #654F4A",
"t+	c #3A3230",
"u+	c #50423E",
"v+	c #614D48",
"w+	c #5E4A46",
"x+	c #644F4A",
"y+	c #66514B",
"z+	c #3B3330",
"A+	c #4B3D3A",
"B+	c #66514A",
"C+	c #372F2E",
"D+	c #4A3C3A",
"E+	c #5B4944",
"F+	c #4F403E",
"G+	c #584743",
"H+	c #3E3533",
"I+	c #2D2A28",
"J+	c #433737",
"K+	c #4C3E3B",
"L+	c #362E2E",
"M+	c #2A2827",
"N+	c #4A3D3B",
"O+	c #403534",
"P+	c #483B38",
"Q+	c #463B38",
"R+	c #39312F",
"S+	c #3A3232",
"T+	c #473B3A",
"U+	c #39322F",
"V+	c #453838",
"W+	c #443938",
"X+	c #483C39",
"Y+	c #443838",
"Z+	c #3A3130",
"`+	c #36302E",
" @	c #3B3332",
".@	c #2F2B2B",
"+@	c #232222",
"@@	c #242324",
"#@	c #212222",
"$@	c #403533",
"%@	c #3F3633",
"&@	c #3F3532",
"*@	c #332E2C",
"=@	c #524340",
"-@	c #544441",
";@	c #4C3F3B",
">@	c #554440",
",@	c #554540",
"'@	c #51413E",
")@	c #4E403C",
"!@	c #574541",
"~@	c #4D3F3B",
"{@	c #564540",
"]@	c #52433E",
"^@	c #69514C",
"/@	c #5D4A45",
"(@	c #715751",
"_@	c #2F2B29",
":@	c #614D47",
"<@	c #6D544E",
"[@	c #705750",
"}@	c #705650",
"|@	c #644E49",
"1@	c #2D2A29",
"2@	c #65504B",
"3@	c #50403E",
"4@	c #292627",
"5@	c #5F4B46",
"6@	c #5C4A45",
"7@	c #5D4946",
"8@	c #292625",
"9@	c #4A3C3B",
"0@	c #342D2C",
"a@	c #4D3E3C",
"b@	c #423837",
"c@	c #332C2C",
"d@	c #332C2D",
"e@	c #423834",
"f@	c #3B3230",
"g@	c #3F3434",
"h@	c #3C3431",
"i@	c #2A2826",
"j@	c #52413F",
"k@	c #4F403C",
"l@	c #4F413D",
"m@	c #68514B",
"n@	c #3D3431",
"o@	c #4B3E3A",
"p@	c #6D554E",
"q@	c #634D48",
"r@	c #6F5550",
"s@	c #644F49",
"t@	c #69534C",
"u@	c #4C3F3C",
"v@	c #664F4B",
"w@	c #67504C",
"x@	c #2D2828",
"y@	c #594744",
"z@	c #554541",
"A@	c #473A38",
"B@	c #453939",
"C@	c #423636",
"D@	c #302A2A",
"E@	c #3F3535",
"F@	c #332E2D",
"G@	c #302C2B",
"H@	c #352F2F",
"                                  . + @ # $ % & * =                         - ; > , ' ) ! ~ {     ] ^ / ( , _ : : : : : : : : : ",
"                      < {         . [ } | $ % & * 1 . { .           < {     2 3 4 , ' 5 6 7 {     ] ^ 8 9 0 _ : : _ : : : : : : ",
"a a a a a a a a a a b a c { { { { a d e f g h i j k l c l { { { m n o o c l p q ( ' r s t u c b a o d v 9 w x y z A x z _ : : : ",
"7 7 7 7 7 7 7 7 7 7 B C B B D B C 7 E F G r H I J K ^ B B C D B C d ~ 1 k L M N O P Q R S T p 1 7 k U V 4 W X r Y Z ` Q A _ : : ",
"E E E E E E E E E E  .E ..+.E T T @.#.$.%.&.*.=.-.;.>.+...T ,.+.E E E E E E '.$.).!.~.{.].^.+.E E T / /.$.(.I _.W ).:.` <.[.: : ",
"N N N N N N N N N N }.|.F 1.|.|.|.|.2.3.4.~.x 5.6.$.|.|.F |.|.|.|.|.|.|.|.|.7.8.4.*.9.0.a.].J 1.1.|.J b.c.].d.d.f e.f.g.h.x : : ",
"i.i.i.i.i.i.i.i.i.i.j.j.k.l.7.7.b.i.( m.$ ~.n., W 5 7.l.k.j.j.7.o.o.> p.q.r.( 6., x s.t.u.3.$.7.$.p.-.4 $.r.7.7.v.r.4 w.g x : : ",
"j.j.j.j.j.j.j.j.j.j.j.j.j.b.7.7.x.7.( m.g ~.y.z.A.B.c.b.j.j.v.( f.O C.D.E.$.( m.g A s.t.w.5 F.F.G.D.a.O f H.j.j.j.j.].I.g x : : ",
"j.j.j.j.j.j.j.j.j.j.j.j.j.j.j.b.b.c.].6.g ~.x J.I f 7.j.j.j.> K.m.L.0.).K.> M.I.z.y.9.t.I.N.].f.6.O.w A.a.f j.j.j.j.> I.g x : : ",
"j.j.j.j.j.j.j.j.j.j.j.j.j.j.j.j.j.o.N.R , s.z ' W P.k.c.r.j.> (.O.P Q.0.I.E.R.I., y.s.g w.3.P.a.w Y !.w 6.f v.j.j.j.> I., S.: : ",
"-.-.-.-.-.f f -.-.-.-.-.-.-.-.f f f T.W ` x U.V.0 a.-.e.( -.N.).` *.9.P W.8.D.X.h.Y.y r W Z.O R ' 9.x J.`.(.f -.-.-.N.%.` x : : ",
" + + + + +6. + + + + + + + + +6.6.6..+0 h y ++*.' %. + + + +R 0.@+A y Q z.W g., !.y ++Q , g.R #+V.x ++*.$+A. + + + +R $ !.[.: : ",
"0.0.0.0.0.0.0.0.0.0.0.0.0.0.0.0.0.0.' !.y.z ++x J., 0.0.0.0.g !.*.z %+y 9.` z.V.*.++U.[.Q ' ' V.s.++U.y.J.t.0.0.0.0.g Q y.++: : ",
"Q Q Q H &+9.9.&+&+Q Q Q Q Q Q Q &+9.9.x y z _ _ [.y.9.&+H Q 9.n.x z *+*+z Q *.n.y U.U.=+Y.9.x y z _ _ z y.Q Q Q Q <.9.=+++U.: : ",
"V.V.h 9.Y.U.z Y.y.h V.V.V.V.@+Q x U.U.++x *.Q s.y %+U.Y.9.h !.Q @+@+-+@+@+V.V.@+@+Q 9.9.;+[.U.++x 9.h >+h h h h r h.@+s.[.,+: : ",
"'+B.a.g.r y y V.)+!+~+{+G.]+i W X x z V.{.!+8.O.r Y.z r O.^+d.].N.P.f.G.'+5 f.'+'+/+^+(+J.;+x !.O.(.f.'+~+5 /+5 G.( T.g.V.z : : ",
"_+v ^.o.R H H `.( :+<+[+8 }+^.$.A.h Q O.|+:+^.9 _.h x W.G.1+2+8 #.3+2+/ 8 4+}+8 8 _+t F.5+h 9.4.f /.8 2+3 v _+/ #.}+q ].g.*.: : ",
"= = 6+;.f.7+7+i N E 8+= B B 9+0+T.J.Y 6.a+E b+^.f.' H 6.S c+~ d+8+e+B k f+1 f+f+1 p 9+g+5 r Q A.h+ .- B = = = = k 7 k i+T.7+: : ",
"j+k+l+/ $.m+0 G.;.n+2 o+k+p+~ v '+r Y i i+U k q F.`.X 5 q+9+^ e+r+o+[ k+k+k+o+o+j++ s+q ( t.<.t+u+u + k+k+k+j+j+k+k+- * f.X : : ",
"d d v+6 7.A._.d.1+w+x+y+d 8+K ;.B.J.J.z+A+2+6+g+9 5+g K.b.'.E K U u k d d d B+B+d 8+E i+~+` Q C+D++.d+d d d d d k k 9+F (.Y : : ",
"+.E+#.F+r.(.3.$.J 6 [+E+E+2+'.h+Z.<.V._.9 ^.G+:+c.H+).K.5 f v.J q+; 3++.+.+.+.+.E++.^.c.m.I+9.4.| /.[+E++.+.+.+.+.+.e > ).Q : : ",
"/./.1.b.r.J+].7.l.|.F+/./.:+K+( L+Q M+4.]+2.N N+7.> R.D.:.$ 0. +p.h+F+/./././././.F+b.O+O.V.n.' D.v.N /././././././.J 3.L.s.: : ",
"k.k.l.l.j.j.j.j.j.j.k.k.j.P+Q+8.0.Q n.I+R+'+$.c.$.r.q.S+t.s.[.P R |+i.k.k.k.k.k.k.j.-.a.w Q x J.%.N.c.7.T+v.$.$.r.j.q.S+g x : : ",
"j.j.j.j.j.j.j.j.j.j.j.j.7.Q+e. +t.x y X U+'+r.j.j.7.].I.g x z h.A.-.j.j.j.j.j.j.j.j.-. +0.Q x r ).E.o.| 3.(.a.(.# V+> I.g x : : ",
"j.j.j.j.j.j.j.j.j.j.j.j.j.j.-. +$ y.y ' R f j.j.j.j.p.I.g x z Y A.( 7.j.j.j.j.j.j.j.f 6.0.Q x J.W E.$.P. +X.L.).D.p.> I.g x : : ",
"j.j.j.j.j.j.j.j.j.j.j.j.k.k.-.a.4.H Y.' R R.j.j.k.k.W+m.g x z Y ).( X+b.j.j.j.j.j.b.f 6.L.<.n.Y A.f.d.3.%.` @+L. +-.> m.g x : : ",
"> > > > > > > > > > > > > Y+3.Z+m+*.y r W 3.> > o.o.f ).` x z P X.5 > o.> > > > > $.N.R 0.9.y J.`+s & R g s.z h.X.3.f ).` x : : ",
" @R u.S+ @m.I.I.I.I.I.6. @I.A.4.&.++_ *.t.%.Z+Z+m.m.).g @+z z Q ` O.R m.I.I.I.I.m.I.%.$ h z _ s.g g.W ` Q A U.@+.@O.).t.<.z : : ",
"t.h.Z .@g ` ` g g h.g g z.g g h y ++_ ;+<.Y z.z.z.g g @+A _ _ [.Q Y ` g g h.` g g z.h.!.;+_ U.y Q r r @+x U.+@z @+` ` <.x _ : : ",
"x [.z A x z A S.s.A S.x [.S.x U.: ,+_ z z z y x y A x [._ : : _ z z [.x x z A x x x A [.U.: +@,+U.[.y [.@@: #@: z x A z _ : : : ",
"V.@+!.Y @+!.Q s.y U.U.z s.Q h V.&.h r J.h h J.% J.r Y Q [.+@+@*+A *.&.J.h H Q s.z U._ ++x 9.Q V.&.h I+r V.% J.h Q Q 9.z U._ : : ",
"]+5 N.N.K.3.a.O.J.Y.y V.#+m.i & & T.G.$@^+%@~+T.B.e.N.%.Y z U.Q $ R & /+&@^+6.#+V.Y.y &.*@R 8.5 & T.~+~+& & ~+T.H+T.!+5.!.[.: : ",
"6 q '.=@-@^.|.].(+<.H 4.5 ;@;.j ^.>@g+>@<+,@g+q t '@)@N.w s.[.$ E.h+g+!@q q :+( (+*.*.{.G.~@q ;.t {@]@/.>@q 1+{@<+<+g+9 A.Q : : ",
"- - 1 ^@1 ^@U 1+T.r Y 6.a+/@d = = B = B B B = - ^@7 u :+G @+<.a.N+>.d B B B U /.T.J.V.6.a+/@p = = B = 2 e+B p B B D d+1+8.J.: : ",
"(@[ k+o + k+8+,@~+_@Y a./.:@<@[@[@[@[@[@j+[@[@}@}@[@- * N.Y !.K.a+|@p+k+j+j+d+'.~+z.1@i /.:@e+k+k+j+[@a c j+k+k+k+[@B g+T.J.: : ",
"C l+~ 1 2@d U 1+i r h .+S +.8+= p p p p p p p 7 7 = u 3@(.!.4@I.2.K 7 7 = 7 5@:+i z.1@t+S ..s+7 7 p p 7 7 7 7 7 7 7 u )@G !.: : ",
"E E E E ,...g+X+Z+!.M+g.4 /.+.E E E E E E E E T E+T q j.W s.A L.].* T E 6@T g+c.Z+Y -+O.( :+8 E E E E E T T E 7@E E }+j.6.!.: : ",
"N N N N N |.7.T.{.8@y.t. +].)@N 1.|.1.|.N N N N N 1.9@N.=.9.A , K.7.K+a+N N 7.H+0@*.s.t.a.$.a@|.|.|.|.N N N N :+1.:+a@8.#+Q : : ",
"i.i.i.i.i.i.p.a.#+Q *., I (.4 $.r.j.j.j.i.b.N+N+b.7.>  +0.s.y z. +d.c.c.j.i.p.i {.J.Y 4.m.P.v.k.j.j.k.l.b.X+X+b.j.b.$.Z+g n.: : ",
"j.j.j.j.j.j.].]+R 5.z.w ).). @]+( $.j.j.j.j.b.b.X+i.> I.g x y z.w.( c.7.j.b.p.H+t+#+#+A.(.f v.j.j.j.j.k.7.c.X+b.j.j.> Z+z.A : : ",
"j.j.j.j.j.j.c.d.5 6.A.g.=.w w %.i d.j.j.j.j.r.r.b.l.> I.g x A .@).( 7.j.j.b.].N.5 a. @8.G.c.j.j.j.j.j.r.c.X+b.7.7.j.> Z+z.A : : ",
"j.j.j.j.j.b.7.9 '+f 3.R , !.!.0.a.-.v.j.j.j.j.j.j.j.> Z+z.A z r A.{+c.Q+$.c.$.$.$.d.> > 9 c.k.7.c.r.b.r.c.7.b.j.T+k.q.Z+` A : : ",
"-.-.-.-.-.( '+f.P.b@8.W ' y.n.Y g.(.E.f f -.-.-.-.-.N.%.` A z 1@O.8.f.e.9 ( P.P.f 5 f f N.P.-.f G.e.-.( e.e.| f f f N.).g x : : ",
" + + + + +m.m.m. +C.I 4.J.y z ~.z.W.6. + + + + + + +R $ V.[.z V.$ %.I.a.8.a.I.I.m.I 6. +I. + +6.6. + +a. +m.6.I.6. +R 0.@+z : : ",
"0.0.0.0.0.0.0.0.0.0.t.V.x z _ A Q Y c@w c@0.0.0.0.0.g Q s.++U.s.@+r 5.L.0.0.0.0.0., c@d@c@L.0.0.0.0.0.L.0.5.4., c@w 0.Q z : : : ",
"Q Q Q Q Q Q Q Q 9.9.y.z %+%+%+z y y.~.Q Q 9.9.9.&+Q 9.z y z U.z z x *.<.Q Q Q &+&+Q 9.Q <.<.Q Q Q Q Q Q Q Q 9.Q <.@+Q [.U.+@: : ",
"h V.V.h h h h H y z ++z n.H M+h V.@+Q ~.x ++U.[.y.<.V.h V.h @+!.!.@+@+!.V.V.<.y.[.U.U.A 9.Q @+@+@+h h y.Y.z U.y *.@+@+9.z +@: : ",
"3.f.'+'+'+e@s (+J.y y !.)+f@5 G.G.f.g@g.P Y.U.V.)+!+/+/+/+/+G.G.# 3.5 G.'+'+i O.P y [.@+w !+3.P.'+~+h@{.Y A U.i@4. +(.W r z : : ",
"/ 3 _+_+8 _+1+d.5+h *.#+G.~@#.8 8 / j@q.%.Q 8@{.f.k@3 _+2+v q / }+#./ +.8 _+j ].W M+~.w G.:+6 G+[+<+l@].A.h Y.)+5 }.6 $.%.9.: : ",
"= = = = m@m@/@a+s r h t+K+E+k 1 1 ~ c+/.3.h.% m.h+/@= = ^ 7 s+l+^ 7 7 ^ = p M /.s P @+t+~@E+k = = d K '@5 z.h n@o@w+k i+a.@+: : ",
"j+j+k++ C B K F+T.r h Z./.v+p@[ [ r+2@'.( 0.9.!+:+q@k+k+k+k+r@k+k+k+k+k+o+[ |@t ~+X ` a.k@:@p@j+j+o+7 q {+4.' & 1+s@t@j H+J.: : ",
"d d s+6+U ..^.v.A.H Q t+u@,.x+y+y+d+ .:+5 t.;+t+2.E+y+y+k k l+l+l+l+l+k s+v@>.N 8.Y h.R D+E s+w@k s+U >@Q+t+%.f.:+c+:@K+a.x@: : ",
"+.E+v ;.|.$.O+w.g [.*.(+].^.3 +.E+8 g+r.m.!.Y.g.( 1++.+.+.+.+.+.+.T y@} 3+3+;.r.w.!.@+O.p.q+8 @.+.8 6 F+c.T.D.4 J z@q ].%.Q : : ",
"/./.a+$.(.g.z.@+9.%+9., i x.a+:+/.N b.N.#+*.x 0.(.x././././././././.|.a@3@/.2.5 O.&+9.4.K.o.|./.3@N S 2.c.|+( A@2.|.J 3.0.x : : ",
"k.k.> O X.V.x *+_ +@x ` R f.r.X+7.c.f a.4.!.<.g R f j.k.k.k.k.j.j.o.> o.j.j.Y+ +` [.x t. +P.o.v.o.o.> $.A@v.j.j.j.k.q.m.g x : : ",
"j.j.W+8.w.#+h.Q s.=+x ` ).N.j.b.r.c.9 # w.L.t.O.a.-.j.j.j.j.T+B@C@(.D.# C@> J+ +` 9.s.h.).# q.p.# 3.(.3.P.p.j.j.j.7.4 t+4.H : : ",
"j.j.o.e.(. +#+Y @+z x D@u.E@v.j.j.7.c.-.3. +R a.E.o.j.j.j.j.> K.a.X.O.R 3.W+M.I.` x ;+` ).N.$.P.I.O.O.m.O f j.j.j.j.].m.0 9.: : ",
"j.j.j.v.p.p.D.=.Y s.S.g w.3.$.j.j.j.7.o.> -.f p.o.j.j.j.j.k.p.m.X.` !.5.m.4 f I.` ;+;+` ).N.( 3.O.Y Y F@ +f j.j.j.k.q.6.G@x : : ",
"> > > > > o.R.).` ~.x P %.8.( > > > > > > > > > > > > > > > f R g ;+[.@+#+f.5 :.` 9.;+P %.(.O m.$ S.s.Q.H@3.> > > > J+w.z.A : : ",
"I.I.I.m.I.I.O.g @+z _ s.` %.w.m.I.w.).w.m.I.I.I.I.I.I.I.I.m.).0.@+[.[.Q g ).O..@@+[.U.9.g O.%.0.Q U.*+Q g X.w.I.I.m.).g @+[.: : ",
"g g g G@' g ` @+[._ _ A !.` g g g g g g g g g g g g g g g g ` <.[._ +@[.@+` P ~.[.U.+@U.s.h.` !.x U.U.9.!.Y g g g g g @+x U.: : ",
"s.s.s.n.x x x [.+@: : U.A x x x x x x S.x x x x x x x x x x A z _ : : _ [.x A *+_ U.+@: _ x x [.U.+@_ z [.[.x x x x x [.U.: : : ",
"_ _ : : : : : : : : : : : : : : : : : : : : : : : : : : : : : : : : : : : : : : : _ : : : : : : : : : : : : : : : : : : : : : : ",
": : : : : : : : : : : : : : : : : : : : : : : : : : : : : : : : : : : : : : : : : : : : : : : : : : : : : : : : : : : : : : : : "};
