/* XPM */
static char * west_undersize_xpm[] = {
"16 16 197 2",
"  	c #AB9987",
". 	c #9F8F7E",
"+ 	c #A89888",
"@ 	c #958576",
"# 	c #928374",
"$ 	c #7F7264",
"% 	c #938577",
"& 	c #7A6C5F",
"* 	c #9B8B7B",
"= 	c #A99887",
"- 	c #9C8D7E",
"; 	c #9A8A7A",
"> 	c #918274",
", 	c #A89784",
"' 	c #AC9B8A",
") 	c #9E8E7E",
"! 	c #968778",
"~ 	c #908274",
"{ 	c #AD9C8C",
"] 	c #99897B",
"^ 	c #938476",
"/ 	c #8E8073",
"( 	c #8C7E6F",
"_ 	c #6D6155",
": 	c #807365",
"< 	c #776C60",
"[ 	c #8F8071",
"} 	c #A09081",
"| 	c #AB9A89",
"1 	c #7A6D5F",
"2 	c #76695D",
"3 	c #807265",
"4 	c #786B5D",
"5 	c #817364",
"6 	c #887A6C",
"7 	c #938475",
"8 	c #827466",
"9 	c #908273",
"0 	c #817366",
"a 	c #897A6B",
"b 	c #A29282",
"c 	c #A99888",
"d 	c #998A7B",
"e 	c #938477",
"f 	c #B4A28F",
"g 	c #9A8A7B",
"h 	c #908171",
"i 	c #9B8B7A",
"j 	c #6C6054",
"k 	c #BCAA99",
"l 	c #9A8B7B",
"m 	c #9C8D80",
"n 	c #9D8D7D",
"o 	c #B09F8F",
"p 	c #807367",
"q 	c #9D8C7A",
"r 	c #8D7E6E",
"s 	c #897B6E",
"t 	c #85786C",
"u 	c #7C6F63",
"v 	c #827467",
"w 	c #8C7E70",
"x 	c #B3A18E",
"y 	c #908174",
"z 	c #8D7F70",
"A 	c #948473",
"B 	c #9E8E7C",
"C 	c #958574",
"D 	c #918375",
"E 	c #A29281",
"F 	c #A59583",
"G 	c #706559",
"H 	c #897B6D",
"I 	c #786C5F",
"J 	c #918272",
"K 	c #7B6E60",
"L 	c #786B5F",
"M 	c #776B5E",
"N 	c #AB9A87",
"O 	c #74685D",
"P 	c #97887A",
"Q 	c #A09182",
"R 	c #7C6F62",
"S 	c #887A6B",
"T 	c #A69584",
"U 	c #6C6055",
"V 	c #938474",
"W 	c #B19F8C",
"X 	c #75675A",
"Y 	c #9A8B7D",
"Z 	c #958678",
"` 	c #786B5C",
" .	c #938473",
"..	c #7E7062",
"+.	c #938373",
"@.	c #7A6E62",
"#.	c #7F7265",
"$.	c #817468",
"%.	c #75695D",
"&.	c #7A6D60",
"*.	c #897A6C",
"=.	c #A79581",
"-.	c #968675",
";.	c #928272",
">.	c #897B6F",
",.	c #8A7D70",
"'.	c #948574",
").	c #978878",
"!.	c #B19F8D",
"~.	c #948576",
"{.	c #8B7D6E",
"].	c #8F8173",
"^.	c #968779",
"/.	c #847769",
"(.	c #8C7E73",
"_.	c #7F7368",
":.	c #B3A08D",
"<.	c #8E7F6F",
"[.	c #837568",
"}.	c #9E8E7D",
"|.	c #83766A",
"1.	c #6B5F54",
"2.	c #837669",
"3.	c #6F6459",
"4.	c #8C7D6D",
"5.	c #8B7C6C",
"6.	c #6D6257",
"7.	c #6F6356",
"8.	c #72665B",
"9.	c #7A6D5E",
"0.	c #807363",
"a.	c #9C8C7B",
"b.	c #9C8C7C",
"c.	c #86786A",
"d.	c #A59584",
"e.	c #A79786",
"f.	c #716457",
"g.	c #706558",
"h.	c #A79787",
"i.	c #8A7C6E",
"j.	c #A49483",
"k.	c #AF9E8C",
"l.	c #998979",
"m.	c #61564B",
"n.	c #72665A",
"o.	c #9D8D7E",
"p.	c #918275",
"q.	c #726659",
"r.	c #87796D",
"s.	c #8F8174",
"t.	c #796C5F",
"u.	c #998A7A",
"v.	c #8A7C6D",
"w.	c #887B6F",
"x.	c #827569",
"y.	c #A39382",
"z.	c #7C6E60",
"A.	c #6E6357",
"B.	c #6E6257",
"C.	c #AC9C8C",
"D.	c #A79684",
"E.	c #A69684",
"F.	c #9B8B79",
"G.	c #8F8072",
"H.	c #9A8A78",
"I.	c #A89887",
"J.	c #A59483",
"K.	c #837567",
"L.	c #827568",
"M.	c #887B6D",
"N.	c #A0907F",
"O.	c #978778",
"P.	c #A89786",
"Q.	c #776A5E",
"R.	c #867869",
"S.	c #7A6E61",
"T.	c #87796B",
"U.	c #85776C",
"V.	c #706357",
"W.	c #7E7163",
"X.	c #98897C",
"Y.	c #7B6D60",
"Z.	c #847667",
"`.	c #8B7D70",
" +	c #716558",
".+	c #918374",
"++	c #817466",
"@+	c #7D7065",
"#+	c #948575",
"$+	c #7F7163",
"%+	c #948474",
"&+	c #978777",
"*+	c #73665A",
"=+	c #988979",
"-+	c #988878",
";+	c #75685C",
">+	c #9E8F7F",
"  . + @ # $ % & * = - ; > , ' ) ",
"! ~ { ] ^ / ( _ : < [ } | 1 2 3 ",
"[ 4 5 6 7 8 9 0 a b c d e f g h ",
"i j / k l m n 8 o - p q r s t s ",
"| u v * w x y z A B C D E h F ! ",
"v 9 = G H I J A K L M N H O P H ",
"Q R z S T ) U M V W X Y Z `  ...",
"+.l @.Q #.3 $.%.&.H *.=.-...  ;.",
">.,.: '.6 ).!.~.V T {.].^./.(._.",
":.<.T [.}.|.1.2.s 3.2 4.5.6 x 8 ",
"6.7.8.9.0.V [ a.b.).c.d.e.f.g.#.",
"c.h.i.j.k.l.m.n.o.p.q.r.s.t.u.v.",
"w.x.y.z.A.B.C.b.D.C q.E.F.G.b v.",
"H.J $ I.J.K.V L.M.N.O.P.6 d.Q.R.",
"S.T.U.V.W.X.E Y.Z.`.H  +v .+++@+",
"#+$+%+: 1.&+c.*+=+A -+;+>+G.K * "};
